<svg width="146" height="52" viewBox="0 0 146 52" fill="none" xmlns="http://www.w3.org/2000/svg">
<g style="mix-blend-mode:luminosity" filter="url(#filter0_d_347_447)">
<path fill-rule="evenodd" clip-rule="evenodd" d="M34.4795 21.7336C34.4795 30.1118 27.8393 36.9038 19.6482 36.9038C11.4571 36.9038 4.81689 30.1118 4.81689 21.7336C4.81689 13.3551 11.4571 6.563 19.6482 6.563C27.8393 6.563 34.4795 13.3551 34.4795 21.7336Z" fill="#D33833"/>
<path d="M5.42122 25.4906C5.42122 25.4906 4.34754 9.67051 18.9247 9.21845L17.9078 7.52344L9.99777 10.179L7.7377 12.778L5.76023 16.5636L4.63013 20.9707L4.96913 23.9086" fill="#EF3D3A"/>
<path d="M9.48987 11.3846C6.88768 14.0472 5.27742 17.7233 5.27742 21.7902C5.27742 25.8562 6.88768 29.5328 9.48987 32.1948C12.0933 34.8569 15.6812 36.4995 19.6478 36.4995C23.6146 36.4995 27.2027 34.8569 29.8059 32.1948C32.408 29.5328 34.0186 25.8562 34.0186 21.7902C34.0186 17.7233 32.408 14.0472 29.8059 11.3846C27.2027 8.72312 23.6146 7.08048 19.6478 7.08014C15.6812 7.08048 12.0933 8.72312 9.48987 11.3846ZM8.83119 32.8388C6.06567 30.0105 4.35596 26.1018 4.35596 21.7902C4.35596 17.4779 6.06567 13.5695 8.83119 10.741C11.5961 7.91205 15.4234 6.15856 19.6478 6.15907C23.8724 6.15856 27.7001 7.91205 30.4645 10.741C33.2302 13.5695 34.9401 17.4782 34.9398 21.7902C34.9401 26.1018 33.2302 30.0105 30.4645 32.8388C27.7001 35.6676 23.8724 37.4209 19.6478 37.4209C15.4234 37.4209 11.5961 35.6676 8.83119 32.8388Z" fill="#231F20"/>
<path fill-rule="evenodd" clip-rule="evenodd" d="M25.8914 21.8177L23.6313 22.1567L20.5802 22.4957L18.6026 22.5521L16.6817 22.4957L15.2126 22.0436L13.913 20.6312L12.896 17.7496L12.67 17.1281L11.314 16.6762L10.523 15.3766L9.95801 13.5121L10.5796 11.8735L12.0485 11.365L13.235 11.9301L13.8001 13.1731L14.4781 13.06L14.7041 12.7776L14.4781 11.4781L14.4215 9.83951L14.7605 7.57954L14.7473 6.28862L15.7775 4.64157L17.5856 3.342L20.7497 1.98599L24.2527 2.4945L27.3037 4.69802L28.7163 6.95798L29.6203 8.59655L29.8462 12.6646L29.1682 16.1677L27.9252 19.2751L26.7387 20.9137" fill="#F0D6B7"/>
<path fill-rule="evenodd" clip-rule="evenodd" d="M23.9703 31.592L15.8906 31.931V33.2871L16.5686 38.0331L16.2296 38.4287L10.5796 36.5076L10.184 35.8296L9.61903 29.4451L8.3197 25.603L8.03711 24.6991L12.557 21.5916L13.9697 21.0265L15.2126 22.552L16.2861 23.5126L17.5292 23.908L18.0941 24.0775L18.7721 27.0155L19.2806 27.637L20.5802 27.185L19.6761 28.9366L24.5917 31.253L23.9703 31.592Z" fill="#335061"/>
<path fill-rule="evenodd" clip-rule="evenodd" d="M10.5796 11.8734L12.0485 11.3649L13.235 11.93L13.8002 13.173L14.4782 13.0599L14.6477 12.3819L14.3087 11.0825L14.6477 7.97487L14.3651 6.27986L15.3821 5.09334L17.5856 3.34188L16.9641 2.49438L13.8566 4.01989L12.557 5.0369L11.8226 6.61886L10.6925 8.14437L10.3535 9.95244L10.5796 11.8734Z" fill="#6D6B6D"/>
<path fill-rule="evenodd" clip-rule="evenodd" d="M12.8961 6.56248C12.8961 6.56248 13.7436 4.47202 17.1336 3.45501C20.5236 2.438 17.3031 2.72039 17.3031 2.72039L13.6307 4.13301L12.2181 5.54547L11.5967 6.67554L12.8961 6.56248Z" fill="#DCD9D8"/>
<path fill-rule="evenodd" clip-rule="evenodd" d="M11.201 11.4781C11.201 11.4781 10.0145 7.52294 14.5346 6.95799L14.3651 6.27998L11.2576 7.0146L10.3535 9.95257L10.5796 11.8735L11.201 11.4781Z" fill="#DCD9D8"/>
<path fill-rule="evenodd" clip-rule="evenodd" d="M13.009 16.7325L13.7488 16.0157C13.7488 16.0157 14.0827 16.0545 14.1391 16.45C14.1955 16.8456 14.365 20.4051 16.7945 22.3262C17.0162 22.5015 14.9866 22.0435 14.9866 22.0435L13.1785 19.2186" fill="#F7E4CD"/>
<path fill-rule="evenodd" clip-rule="evenodd" d="M23.4056 15.6591C23.4056 15.6591 23.5373 13.9464 23.9985 14.0781C24.4598 14.2098 24.4598 14.671 24.4598 14.671C24.4598 14.671 23.3397 15.3957 23.4056 15.6591Z" fill="#F7E4CD"/>
<path d="M28.0948 9.38748C28.0948 9.38748 27.1635 9.5841 27.0777 10.4045C26.992 11.225 28.0948 10.574 28.2643 10.5175" fill="#F7E4CD"/>
<path d="M21.2583 9.44423C21.2583 9.44423 20.0151 9.61374 20.0151 10.4046C20.0151 11.1957 21.4278 11.1393 21.8232 10.8002" fill="#F7E4CD"/>
<path fill-rule="evenodd" clip-rule="evenodd" d="M13.574 13.1166C13.574 13.1166 11.4269 11.817 11.201 13.0601C10.975 14.3031 10.4664 15.2072 11.54 16.5066L10.8055 16.2806L10.1275 14.5292L9.90161 12.8342L11.201 11.478L12.67 11.591L13.5176 12.2691L13.574 13.1166Z" fill="#F7E4CD"/>
<path fill-rule="evenodd" clip-rule="evenodd" d="M14.5911 9.55701C14.5911 9.55701 15.5516 4.58502 20.4108 3.62445C24.4112 2.83373 26.5127 3.79395 27.3038 4.6979C27.3038 4.6979 23.7442 0.460536 20.3542 1.75994C16.9641 3.0595 14.4782 5.43253 14.5346 6.95787C14.6308 9.55599 14.5911 9.55701 14.5911 9.55701Z" fill="#F7E4CD"/>
<path fill-rule="evenodd" clip-rule="evenodd" d="M27.6994 5.26292C27.6994 5.26292 26.061 5.20648 26.0044 6.67555C26.0044 6.67555 26.0042 6.9015 26.1173 7.12744C26.1173 7.12744 27.417 5.65837 28.2079 6.44944" fill="#F7E4CD"/>
<path fill-rule="evenodd" clip-rule="evenodd" d="M20.5247 7.28049C20.5247 7.28049 20.2426 5.02561 18.3201 6.33654C17.0772 7.18404 17.1903 8.37055 17.4162 8.5965C17.6421 8.82261 17.5807 9.27773 17.7527 8.96534C17.9247 8.65294 17.8681 7.63593 18.4896 7.35355C19.1112 7.07099 20.13 6.75537 20.5247 7.28049Z" fill="#F7E4CD"/>
<path fill-rule="evenodd" clip-rule="evenodd" d="M15.2126 22.5521L9.90163 24.9251C9.90163 24.9251 12.1051 33.6828 10.975 36.3948L10.184 36.1124L10.1275 32.7788L8.65871 26.4508L8.03711 24.6992L13.574 20.9703L15.2126 22.5521Z" fill="#49728B"/>
<path fill-rule="evenodd" clip-rule="evenodd" d="M15.7586 27.3959L16.5121 28.3153V31.7053H15.608C15.608 31.7053 15.4951 29.3323 15.4951 29.0497C15.4951 28.7672 15.608 27.7502 15.608 27.7502" fill="#49728B"/>
<path fill-rule="evenodd" clip-rule="evenodd" d="M15.7776 32.2138L13.2351 32.3266L13.9697 32.8352L15.7776 33.1177" fill="#49728B"/>
<path fill-rule="evenodd" clip-rule="evenodd" d="M24.4788 31.6486L26.5692 31.5921L27.0777 36.7902L24.9307 37.0726L24.4788 31.6486Z" fill="#335061"/>
<path fill-rule="evenodd" clip-rule="evenodd" d="M25.0437 31.6487L28.2078 31.4792C28.2078 31.4792 29.5072 28.2022 29.5072 28.0327C29.5072 27.8632 30.6373 23.2867 30.6373 23.2867L28.0947 20.6313L27.5862 20.1792L26.2302 21.5352V26.7898L25.0437 31.6487Z" fill="#335061"/>
<path fill-rule="evenodd" clip-rule="evenodd" d="M26.4562 31.2532L24.4788 31.6487L24.7611 33.2308C25.4956 33.5698 26.7387 32.6657 26.7387 32.6657" fill="#49728B"/>
<path fill-rule="evenodd" clip-rule="evenodd" d="M26.5127 21.3657L30.4677 24.3037L30.5807 22.9477L27.5861 20.1792L26.5127 21.3657Z" fill="#49728B"/>
<path fill-rule="evenodd" clip-rule="evenodd" d="M17.7384 42.7797L16.5686 38.033L15.9868 34.5307L15.8906 31.931L21.185 31.6491L24.4788 31.6486L24.1793 37.5817L24.6878 42.1582L24.6314 43.0057L20.3375 43.3447L17.7384 42.7797Z" fill="white"/>
<path fill-rule="evenodd" clip-rule="evenodd" d="M23.7442 31.5922C23.7442 31.5922 23.4618 37.4683 24.3093 41.6492C24.3093 41.6492 22.6143 42.7229 20.1282 43.0052L24.8743 42.8357L25.4392 42.4967L24.7612 33.2308L24.5917 31.253" fill="#DCD9D8"/>
<path fill-rule="evenodd" clip-rule="evenodd" d="M27.1741 36.3389L29.3776 35.7173L33.5586 35.4914L34.1801 33.5704L33.0501 30.2368L31.7507 30.0673L29.9426 30.6323L28.2079 31.4793L27.287 31.3103L26.5693 31.5923" fill="white"/>
<path fill-rule="evenodd" clip-rule="evenodd" d="M27.1343 35.2083C27.1343 35.2083 28.6032 34.5304 28.8293 34.5869L28.2079 31.4792L28.9424 31.1968C28.9424 31.1968 29.4509 34.1348 29.4509 34.4738C29.4509 34.4738 32.6148 34.6433 32.8973 34.6433C32.8973 34.6433 33.5753 33.3437 33.4058 31.9877L34.0274 33.7958L34.0838 34.8128L33.1799 36.1688L32.1629 36.3948L30.4679 36.3383L29.9029 35.6039L27.9253 35.8863L27.3038 36.1124" fill="#DCD9D8"/>
<path d="M24.9139 31.1974L23.6709 28.0333L22.3713 26.1688C22.3713 26.1688 22.6537 25.3777 23.0493 25.3777C23.445 25.3777 24.3489 25.3777 24.3489 25.3777L25.5919 25.8298L25.479 27.9203L24.9139 31.1974Z" fill="white"/>
<path fill-rule="evenodd" clip-rule="evenodd" d="M25.1567 30.1231C25.1567 30.1231 23.5745 27.0722 23.5745 26.6202C23.5745 26.6202 23.8569 25.9422 24.2526 26.1117C24.6482 26.2812 25.4957 26.7331 25.4957 26.7331V25.6596L23.5745 25.264L22.2751 25.4335L24.4787 30.6316L24.9306 30.6882" fill="#DCD9D8"/>
<path d="M18.247 22.6657L16.6817 22.4956L15.2126 22.0435V22.552L15.9305 23.3436L18.1904 24.3606" fill="white"/>
<path fill-rule="evenodd" clip-rule="evenodd" d="M15.7213 22.8352C15.7213 22.8352 17.4729 23.5698 18.0379 23.4003L18.0941 24.0776L16.5124 23.7393L15.5518 23.0613L15.7213 22.8352Z" fill="#DCD9D8"/>
<path fill-rule="evenodd" clip-rule="evenodd" d="M27.1679 25.5699C26.2092 25.5418 25.343 25.4279 24.5847 25.214C24.6362 24.9031 24.5398 24.598 24.6172 24.3741C24.8286 24.2219 25.1829 24.2243 25.5024 24.1885C25.2261 24.0527 24.8379 23.999 24.5191 24.0775C24.5116 23.8617 24.4148 23.728 24.3562 23.5591C24.8952 23.3668 26.1677 22.1055 26.8835 22.5232C27.2245 22.7218 27.3694 23.8565 27.3959 24.4082C27.4179 24.8658 27.3543 25.3276 27.1679 25.5699Z" fill="#D33833"/>
<path d="M27.1679 25.5699C26.2092 25.5418 25.343 25.4279 24.5847 25.214C24.6362 24.9031 24.5398 24.598 24.6172 24.3741C24.8286 24.2219 25.1829 24.2243 25.5024 24.1885C25.2261 24.0527 24.8379 23.999 24.5191 24.0775C24.5116 23.8617 24.4148 23.728 24.3562 23.5591C24.8952 23.3668 26.1677 22.1055 26.8835 22.5232C27.2245 22.7218 27.3694 23.8565 27.3959 24.4082C27.4179 24.8658 27.3543 25.3276 27.1679 25.5699Z" stroke="#D33833" stroke-width="0.339003"/>
<path fill-rule="evenodd" clip-rule="evenodd" d="M22.5834 24.0028C22.5808 24.0753 22.5778 24.1484 22.5749 24.2216C22.2756 24.4182 21.7923 24.4159 21.4638 24.5811C21.9481 24.6023 22.3293 24.7189 22.6591 24.8834C22.6518 25.0661 22.6449 25.2486 22.6378 25.4314C22.0891 25.807 21.5879 26.3663 20.9419 26.7186C20.6364 26.8852 19.5645 27.3138 19.2395 27.2381C19.0557 27.1954 19.0391 26.9672 18.9656 26.7521C18.809 26.2916 18.4485 25.5585 18.417 24.8652C18.377 23.9896 18.2886 22.522 19.2322 22.7024C19.9935 22.8476 20.879 23.1983 21.4684 23.5204C21.8286 23.7174 22.0369 23.9608 22.5834 24.0028Z" fill="#D33833"/>
<path d="M22.5834 24.0028C22.5808 24.0753 22.5778 24.1484 22.5749 24.2216C22.2756 24.4182 21.7923 24.4159 21.4638 24.5811C21.9481 24.6023 22.3293 24.7189 22.6591 24.8834C22.6518 25.0661 22.6449 25.2486 22.6378 25.4314C22.0891 25.807 21.5879 26.3663 20.9419 26.7186C20.6364 26.8852 19.5645 27.3138 19.2395 27.2381C19.0557 27.1954 19.0391 26.9672 18.9656 26.7521C18.809 26.2916 18.4485 25.5585 18.417 24.8652C18.377 23.9896 18.2886 22.522 19.2322 22.7024C19.9935 22.8476 20.879 23.1983 21.4684 23.5204C21.8286 23.7174 22.0369 23.9608 22.5834 24.0028Z" stroke="#D33833" stroke-width="0.339003"/>
<path fill-rule="evenodd" clip-rule="evenodd" d="M23.1284 25.0476C23.0447 24.5707 22.9479 24.4345 22.9853 24.0184C24.2575 23.1702 24.4963 25.4753 23.1284 25.0476Z" fill="#D33833"/>
<path d="M23.1284 25.0476C23.0447 24.5707 22.9479 24.4345 22.9853 24.0184C24.2575 23.1702 24.4963 25.4753 23.1284 25.0476Z" stroke="#D33833" stroke-width="0.339003"/>
<path fill-rule="evenodd" clip-rule="evenodd" d="M24.9703 25.4342C24.9703 25.4342 24.5746 24.8691 24.8572 24.6996C25.1398 24.5301 25.4223 24.6998 25.5918 24.4172C25.7613 24.1346 25.5918 23.9651 25.6483 23.6261C25.7047 23.2871 25.9874 23.2305 26.2698 23.1741C26.5522 23.1176 27.3435 23.0046 27.4563 23.2871L27.1173 22.2701L26.4393 22.0442L24.2923 23.2871L24.1792 23.9087V25.1516" fill="#EF3D3A"/>
<path fill-rule="evenodd" clip-rule="evenodd" d="M19.0378 27.2988C18.97 26.4171 18.8981 25.5365 18.8182 24.6556C18.6986 23.3403 19.1342 23.5698 20.2743 23.5698C20.4485 23.5698 21.3466 23.7774 21.4108 23.9088C21.719 24.5381 20.8955 24.3983 21.7658 24.8729C22.5004 25.2734 23.7981 24.6297 23.5013 23.7393C23.3352 23.5413 22.6358 23.6776 22.3851 23.5476C21.9437 23.3187 21.5023 23.0899 21.0609 22.8611C20.4993 22.5697 19.2014 22.1449 18.6026 22.5521C17.0855 23.5838 18.6984 26.1618 19.2396 27.2381" fill="#EF3D3A"/>
<path fill-rule="evenodd" clip-rule="evenodd" d="M20.5245 7.28049C18.9846 6.92182 18.2194 7.92493 17.7526 8.96533C17.3358 8.86431 17.5016 8.2975 17.6069 8.00867C17.8825 7.25065 18.9934 6.24161 19.901 6.3784C20.2916 6.43722 20.8201 6.79436 20.5245 7.28049Z" fill="#231F20"/>
<path fill-rule="evenodd" clip-rule="evenodd" d="M28.0279 9.03413C28.0521 9.03515 28.0767 9.036 28.1009 9.03701C28.4489 9.75994 28.7501 10.5257 29.1891 11.1639C28.895 11.8489 26.9622 12.455 26.992 11.2251C27.41 11.0424 28.1316 11.1878 28.5021 10.9544C28.2879 10.3664 27.9787 9.86588 28.0279 9.03413Z" fill="#231F20"/>
<path fill-rule="evenodd" clip-rule="evenodd" d="M21.313 9.05296C21.6432 9.65825 21.7506 10.2942 22.22 10.7517C22.4314 10.9576 22.8424 11.2087 22.6387 11.7814C22.591 11.9165 22.243 12.2177 22.0422 12.2769C21.3084 12.4935 19.5986 12.3216 20.1776 11.4068C20.7845 11.4351 21.6001 11.8009 22.0537 11.3604C21.7054 10.8036 21.0844 9.70198 21.313 9.05296Z" fill="#231F20"/>
<path fill-rule="evenodd" clip-rule="evenodd" d="M27.7525 15.2048C26.6477 15.9145 25.4157 16.6863 23.6055 16.5073C23.2187 16.171 23.0712 15.4226 23.447 14.9284C23.6426 15.2646 23.5197 15.8832 24.0648 15.9762C25.092 16.152 26.2875 15.3479 27.0263 15.0668C27.4845 14.2944 26.9868 14.0103 26.5741 13.5132C25.7291 12.4946 24.5957 11.2322 24.6369 9.70736C24.9784 9.45972 25.0079 10.0854 25.0569 10.1993C25.4981 11.2319 26.6085 12.5524 27.4189 13.4362C27.6179 13.6539 27.9455 13.8627 27.982 14.0066C28.0871 14.4251 27.7086 14.9265 27.7525 15.2048Z" fill="#231F20"/>
<path fill-rule="evenodd" clip-rule="evenodd" d="M13.1872 14.4577C12.841 14.26 12.7585 13.3895 12.352 13.3647C11.771 13.3295 11.8769 14.4941 11.8792 15.1752C11.4793 14.8121 11.409 13.6942 11.7028 13.1201C11.368 12.9557 11.2184 13.3015 11.0327 13.4234C11.2714 11.6894 13.5693 12.6191 13.1872 14.4577Z" fill="#231F20"/>
<path fill-rule="evenodd" clip-rule="evenodd" d="M28.4558 15.9269C27.9416 16.9058 27.2141 17.9838 25.705 18.0151C25.6743 17.699 25.6507 17.218 25.7067 17.0276C26.8603 16.9168 27.5726 16.3296 28.4558 15.9269Z" fill="#231F20"/>
<path fill-rule="evenodd" clip-rule="evenodd" d="M21.2261 16.5615C22.1886 17.0676 23.9575 17.122 25.2657 17.0837C25.3359 17.3703 25.3342 17.7244 25.3369 18.0739C23.6553 18.1578 21.667 17.7417 21.2261 16.5615Z" fill="#231F20"/>
<path fill-rule="evenodd" clip-rule="evenodd" d="M21.043 17.5053C21.7086 19.1764 23.9961 18.984 25.9252 18.9379C25.8403 19.1549 25.6562 19.4112 25.4274 19.5039C24.8092 19.7554 23.1042 19.9463 22.246 19.4905C21.7018 19.2012 21.3521 18.5474 21.0539 18.1641C20.9099 17.979 20.1928 17.5063 21.043 17.5053Z" fill="#231F20"/>
<path fill-rule="evenodd" clip-rule="evenodd" d="M27.6721 26.7233C26.891 28.0611 26.1437 29.435 25.217 30.615C25.6055 29.4727 25.7718 27.5608 25.8305 26.1033C26.6432 25.723 27.3392 26.1889 27.6721 26.7233Z" fill="#81B0C4"/>
<path fill-rule="evenodd" clip-rule="evenodd" d="M31.875 31.5312C31.0005 31.7063 30.3861 32.5562 29.533 32.5016C30.0018 31.8407 30.8234 31.5621 31.875 31.5312Z" fill="#231F20"/>
<path fill-rule="evenodd" clip-rule="evenodd" d="M32.2606 32.8997C31.5479 32.975 30.7107 33.0904 29.9878 33.0309C30.33 32.5082 31.6486 32.6886 32.2606 32.8997Z" fill="#231F20"/>
<path fill-rule="evenodd" clip-rule="evenodd" d="M32.5078 34.0796C31.7068 34.097 30.7111 34.081 29.9497 34.0171C30.4001 33.5334 31.9883 33.8376 32.5078 34.0796Z" fill="#231F20"/>
<path fill-rule="evenodd" clip-rule="evenodd" d="M26.1647 37.3085C26.2797 38.3145 26.6785 39.3339 26.6285 40.4356C26.1856 40.585 25.9312 40.7156 25.3377 40.7148C25.2959 39.7785 25.1706 38.3471 25.2081 37.4545C25.5 37.4738 25.9303 37.246 26.1647 37.3085Z" fill="#DCD9D8"/>
<path fill-rule="evenodd" clip-rule="evenodd" d="M24.8734 22.4818C24.4712 22.7444 24.1286 23.0722 23.7423 23.3525C22.8857 23.3949 22.4182 23.2932 21.7888 22.8013C21.7992 22.7618 21.8624 22.7794 21.8648 22.731C22.7818 23.1396 23.9474 22.5645 24.8734 22.4818Z" fill="#F0D6B7"/>
<path fill-rule="evenodd" clip-rule="evenodd" d="M20.0596 28.7328C20.3115 27.6411 21.2987 27.0756 22.1952 26.4744C23.1205 27.6487 23.6833 29.159 24.303 30.6163C22.8388 30.175 21.3428 29.4588 20.0596 28.7328Z" fill="#81B0C4"/>
<path fill-rule="evenodd" clip-rule="evenodd" d="M25.208 37.4545C25.1706 38.3471 25.2958 39.7785 25.3377 40.7149C25.9311 40.7157 26.1856 40.585 26.6285 40.4357C26.6785 39.3339 26.2796 38.3146 26.1647 37.3086C25.9303 37.246 25.4999 37.4738 25.208 37.4545ZM15.9678 32.3781C16.3591 35.9755 16.9259 38.9995 17.9654 42.185C20.2725 42.8855 23.0538 42.9465 25.0931 42.3144C24.7187 40.5165 24.8823 38.3276 24.6634 36.409C24.4985 34.9669 24.5826 33.516 24.3565 32.0447C21.8855 31.5306 18.3928 31.9245 15.9678 32.3781ZM24.9407 32.0673C24.9199 33.6122 25.0099 35.1362 25.1279 36.6831C25.7211 36.5941 26.1237 36.5346 26.6749 36.4138C26.4959 34.9246 26.5179 33.2488 26.1533 31.9315C25.732 31.9355 25.3609 31.9266 24.9407 32.0673ZM27.9502 31.8182C27.6687 31.7537 27.3409 31.8157 27.0719 31.8209C27.1983 33.0804 27.5051 34.4701 27.6131 35.7921C28.0363 35.8052 28.2625 35.6056 28.6106 35.5385C28.6293 34.378 28.5092 32.7793 27.9502 31.8182ZM32.5071 35.9817C33.3894 35.7674 33.9441 34.6869 33.6974 33.5771C33.5317 32.8313 33.2368 31.427 32.9212 30.9499C32.688 30.597 32.0556 30.1349 31.5506 30.4583C30.7292 30.9843 29.2822 31.137 28.6832 31.7737C28.9835 32.7737 29.0767 34.1474 29.2006 35.4145C30.2268 35.4785 31.4894 35.1321 32.3429 35.4997C31.7471 35.6927 30.974 35.6942 30.4592 35.9755C30.8799 36.1787 31.8649 36.1376 32.5071 35.9817ZM24.3027 30.6163C23.683 29.1589 23.1203 27.6487 22.195 26.4744C21.2985 27.0756 20.3113 27.641 20.0593 28.7328C21.3426 29.4588 22.8386 30.1749 24.3027 30.6163ZM25.8303 26.1033C25.7716 27.5608 25.6053 29.4727 25.2169 30.615C26.1435 29.435 26.8908 28.0611 27.6719 26.7233C27.339 26.1889 26.643 25.723 25.8303 26.1033ZM24.0986 25.488C23.7476 25.4502 23.4496 25.8916 22.9932 25.7008C22.8886 25.8164 22.7935 25.9416 22.6869 26.0545C23.6951 27.2695 24.1532 28.9933 24.9319 30.4212C25.3497 29.0496 25.3016 27.5469 25.3936 26.0499C24.8195 26.0864 24.501 25.5307 24.0986 25.488ZM22.9852 24.0184C22.9477 24.4346 23.0445 24.5707 23.1283 25.0477C24.4961 25.4753 24.2573 23.1703 22.9852 24.0184ZM21.4683 23.5205C20.8789 23.1984 19.9935 22.8477 19.2322 22.7024C18.2885 22.5219 18.3769 23.9896 18.417 24.8653C18.4484 25.5585 18.8089 26.2916 18.9655 26.7522C19.039 26.9672 19.0556 27.1954 19.2394 27.2381C19.5644 27.3139 20.6364 26.8852 20.9418 26.7186C21.5878 26.3664 22.089 25.807 22.6377 25.4314C22.6448 25.2487 22.6518 25.0661 22.6591 24.8834C22.3292 24.719 21.948 24.6024 21.4637 24.5812C21.7922 24.4159 22.2755 24.4183 22.5748 24.2217C22.5777 24.1485 22.5808 24.0754 22.5833 24.0029C22.0368 23.9608 21.8285 23.7174 21.4683 23.5205ZM15.8386 22.4979C15.3494 22.9945 17.2106 23.6715 17.8032 23.7079C17.7999 23.3937 17.9823 23.0974 17.9455 22.8719C17.2417 22.7484 16.3167 22.8299 15.8386 22.4979ZM21.8646 22.7311C21.8622 22.7796 21.799 22.7619 21.7887 22.8014C22.418 23.2933 22.8855 23.395 23.7422 23.3526C24.1285 23.0723 24.471 22.7445 24.8733 22.4819C23.9473 22.5646 22.7816 23.1398 21.8646 22.7311ZM27.3958 24.4083C27.3694 23.8566 27.2244 22.7219 26.8834 22.5233C26.1676 22.1055 24.8951 23.3669 24.3561 23.5593C24.4148 23.7281 24.5116 23.8618 24.519 24.0776C24.8378 23.9991 25.226 24.0529 25.5023 24.1886C25.1828 24.2244 24.8285 24.222 24.6172 24.3742C24.5397 24.5981 24.6361 24.9032 24.5846 25.2141C25.343 25.428 26.2091 25.5419 27.1678 25.5701C27.3543 25.3277 27.4178 24.866 27.3958 24.4083ZM15.015 22.9782C14.8614 22.8687 13.8222 21.5166 13.6799 21.5727C11.7995 22.3143 10.0412 23.5966 8.47001 24.8093C9.96805 28.0238 10.5728 31.962 10.6796 35.7578C12.3957 36.5604 13.903 37.7174 16.2317 37.8382C15.9622 35.9317 15.7162 34.2307 15.5632 32.4357C14.9781 32.1891 14.1387 32.4469 13.5911 32.3592C13.5865 31.6994 14.4274 32.0703 14.4974 31.6266C14.5502 31.2909 14.0348 31.2655 14.2026 30.737C14.6307 30.8926 14.8555 31.2363 15.312 31.3654C15.7291 30.4528 15.3061 28.8381 15.3663 28.0753C15.3777 27.9321 15.4378 27.2819 15.7586 27.396C16.0425 27.4969 15.7424 29.1252 15.7735 29.8471C15.8018 30.5122 15.6932 31.1558 15.9625 31.5733C18.2127 31.267 20.4993 31.0691 22.934 31.0023C22.3984 30.7724 21.7621 30.5549 21.0644 30.1617C20.6862 29.9485 19.4941 29.5049 19.385 29.1457C19.2109 28.5733 19.8418 28.2684 19.9498 27.7777C18.8139 28.3971 18.5923 27.1839 18.3236 26.3243C18.0802 25.5458 17.9416 24.9643 17.8818 24.5153C16.9034 24.0488 15.8572 23.5764 15.015 22.9782ZM26.402 21.7363C27.9687 20.9766 28.2511 24.5756 27.637 25.735C27.7319 26.0808 28.0584 26.2132 28.1916 26.524C27.3173 28.0902 26.3462 29.5521 25.4542 31.0999C26.1178 30.6868 27.0656 31.026 27.8465 30.7168C28.1319 30.6039 28.3386 29.9505 28.5547 29.4277C29.1491 27.9895 29.7732 26.1764 30.0509 24.8039C30.1136 24.4912 30.2844 23.8098 30.2461 23.5315C30.1778 23.0331 29.5017 22.6636 29.1578 22.3555C28.5242 21.7863 28.1252 21.2854 27.4643 20.7532C27.1963 21.1488 26.6212 21.4146 26.402 21.7363ZM11.432 7.84258C10.6854 8.66398 10.8417 10.2031 10.9321 11.298C12.2815 10.4492 14.0725 11.3652 14.0556 12.809C14.6999 12.7919 14.2963 12.0043 14.1798 11.497C13.7989 9.83998 14.8214 8.03971 14.2261 6.52436C13.0704 6.612 12.1209 7.08406 11.432 7.84258ZM16.7736 3.07518C15.0836 3.55419 12.9176 4.78223 12.2231 6.30045C12.7608 6.22231 13.1342 5.95111 13.6646 5.91755C13.8651 5.9045 14.1278 6.00162 14.3582 5.94433C14.8174 5.83043 15.2049 4.80087 15.5513 4.4178C15.889 4.04371 16.2949 3.88387 16.5726 3.54283C16.7511 3.45673 17.0149 3.46266 17.0251 3.19468C16.9477 3.11196 16.8663 3.0489 16.7736 3.07518ZM25.5713 3.52571C23.8171 2.53599 20.8479 1.79154 18.982 2.72176C17.4763 3.47249 15.4411 4.7146 14.7472 6.28859C15.3954 7.80749 14.5552 9.19927 14.5016 10.7414C14.4731 11.562 14.8879 12.2783 14.9197 13.1715C14.6979 13.5375 14.0202 13.5826 13.5511 13.5575C13.3932 12.7673 13.1167 11.8791 12.303 11.7899C11.1516 11.664 10.3097 12.6169 10.2574 13.6127C10.1955 14.7838 11.1569 16.7248 12.5195 16.59C13.0459 16.538 13.1752 16.0103 13.7487 16.0158C14.0596 16.636 13.2692 16.8307 13.1879 17.2743C13.1667 17.3889 13.2535 17.8367 13.3039 18.0467C13.5514 19.0693 14.1032 20.3928 14.6462 21.1713C15.3355 22.1588 16.6897 22.3077 18.1465 22.4045C18.4067 21.8439 19.3653 21.89 19.9898 22.0366C19.2413 21.7402 18.5454 21.0215 17.9687 20.3854C17.3063 19.6555 16.6352 18.8726 16.6013 17.9186C17.8532 19.6553 18.8874 21.172 21.1638 21.936C22.8862 22.5136 24.8979 21.6712 26.2213 20.7418C26.7705 20.3555 27.0983 19.7426 27.4887 19.1816C28.9493 17.0806 29.6308 14.0818 29.481 11.1751C29.4193 9.97643 29.422 8.78178 29.0198 7.9753C28.5994 7.13203 27.1776 6.37757 26.3454 7.14033C26.1911 6.32029 27.0375 5.81313 28.0316 6.10824C27.3227 5.19344 26.5788 4.09422 25.5713 3.52571ZM28.8394 30.5726C30.2102 29.8912 32.7714 28.7384 33.6307 30.5751C33.9479 31.2521 34.3199 32.3966 34.4842 33.0955C34.7162 34.0814 34.2326 36.1538 33.2192 36.4846C32.3241 36.7768 31.2796 36.759 30.2014 36.5424C30.0744 36.4368 29.9331 36.2527 29.8342 36.0609C29.0644 36.031 28.3435 36.1022 27.7353 36.4187C27.7929 36.988 27.4078 37.0794 27.0468 37.1967C26.7791 38.2579 27.5822 39.6438 27.39 40.6115C27.2529 41.3009 26.4047 41.4075 25.7813 41.5364C25.761 41.9195 25.8086 42.2393 25.8511 42.5634C25.7086 43.0887 25.0692 43.3877 24.4634 43.4609C22.4702 43.7006 19.4439 43.8083 17.5268 43.1189C16.9918 41.8067 16.5703 40.2106 16.1247 38.7122C14.2549 38.9119 12.7426 37.9054 11.317 37.246C10.8234 37.0172 10.1405 36.8911 9.95614 36.4982C9.77736 36.1178 9.85052 35.3888 9.80616 34.7001C9.69327 32.9412 9.59661 31.2446 9.13212 29.4437C8.92357 28.6355 8.56005 27.9224 8.30646 27.1437C8.07207 26.422 7.66256 25.5301 7.55576 24.8104C7.39739 23.7437 8.40181 23.6844 9.04406 23.2221C10.0369 22.5073 10.8162 22.1121 11.8915 21.4669C12.21 21.2759 13.1704 20.7923 13.2796 20.5696C13.4968 20.128 12.9069 19.5055 12.7491 19.1593C12.4996 18.612 12.3695 18.1471 12.3338 17.6071C11.4318 17.4645 10.748 16.9277 10.335 16.3224C9.65176 15.3206 9.17794 13.4673 9.76907 12.0576C9.81543 11.9465 10.0466 11.7282 10.0807 11.5577C10.148 11.2219 9.95413 10.7755 9.94208 10.4183C9.87998 8.58601 10.2521 7.00727 11.4856 6.4547C11.9864 4.45983 13.7786 3.79657 15.4672 2.80516C16.0984 2.43463 16.7943 2.19783 17.5129 1.93341C20.0907 0.984715 24.0458 1.16337 26.1852 2.78143C27.0924 3.46757 28.5425 4.9163 29.0611 5.96518C30.4311 8.73432 30.3338 13.3622 29.3756 16.7307C29.2467 17.183 29.06 17.8477 28.7991 18.391C28.6172 18.7703 28.0519 19.5294 28.1206 19.8643C28.1913 20.2106 29.4095 21.1356 29.6707 21.3874C30.141 21.8412 31.0347 22.4434 31.107 23.016C31.1848 23.6254 30.8385 24.459 30.6631 25.047C30.0766 27.0093 29.5044 28.8232 28.8394 30.5726Z" fill="#231F20"/>
<path fill-rule="evenodd" clip-rule="evenodd" d="M19.6944 16.989C19.7687 16.89 20.1776 16.7396 20.7497 17.0151C20.7497 17.0151 20.0717 17.1281 20.1281 18.2585L19.8456 18.2019C19.8456 18.2019 19.5536 17.177 19.6944 16.989Z" fill="#F7E4CD"/>
<path fill-rule="evenodd" clip-rule="evenodd" d="M24.6484 26.705C24.6484 26.8765 24.5093 27.0156 24.3376 27.0156C24.166 27.0156 24.0269 26.8765 24.0269 26.705C24.0269 26.5334 24.166 26.3941 24.3376 26.3941C24.5093 26.3941 24.6484 26.5334 24.6484 26.705Z" fill="#1D1919"/>
<path fill-rule="evenodd" clip-rule="evenodd" d="M24.959 28.1458C24.959 28.3173 24.8198 28.4564 24.6481 28.4564C24.4766 28.4564 24.3374 28.3173 24.3374 28.1458C24.3374 27.9742 24.4766 27.8349 24.6481 27.8349C24.8198 27.8349 24.959 27.9742 24.959 28.1458Z" fill="#1D1919"/>
<path d="M57.5268 14.0979C57.209 14.1377 56.9389 14.1774 56.7164 14.2171C56.4939 14.2568 56.2437 14.3125 55.9656 14.384C55.6398 14.4714 55.4293 14.6263 55.3339 14.8488C55.2465 15.0712 55.2028 15.3255 55.2028 15.6115V24.9315C55.2028 25.7896 55.028 26.5762 54.6784 27.2912C54.3368 28.0063 53.864 28.6062 53.2602 29.0909C52.6484 29.5676 51.9651 29.9251 51.2103 30.1635C50.4555 30.4098 49.649 30.533 48.7909 30.533C47.3051 30.533 46.1054 30.1754 45.1916 29.4603C44.2859 28.7453 43.833 27.764 43.833 26.5166C43.833 25.7777 44.0396 25.1659 44.4527 24.6812C44.8738 24.1965 45.4499 23.9542 46.1808 23.9542C46.8721 23.9542 47.4203 24.1568 47.8255 24.562C48.2387 24.9672 48.4453 25.4678 48.4453 26.0637C48.4453 26.5722 48.2665 27.0449 47.909 27.4819C47.5594 27.911 47.1581 28.3083 46.7052 28.6737V28.8287C46.7767 28.9876 46.9317 29.1227 47.17 29.2339C47.4084 29.3451 47.6507 29.4007 47.897 29.4007C48.8505 29.4007 49.5974 29.0591 50.1376 28.3758C50.6859 27.6925 50.96 26.6596 50.96 25.2771V15.7307C50.96 15.4447 50.9163 15.2063 50.8289 15.0156C50.7415 14.8249 50.5309 14.6581 50.1972 14.5151C49.9589 14.4118 49.6689 14.3244 49.3272 14.2529C48.9935 14.1814 48.7154 14.1297 48.4929 14.0979V13.1683H57.5268V14.0979ZM71.6736 27.2317C71.3955 27.6845 71.0578 28.1136 70.6606 28.5188C70.2712 28.9161 69.8263 29.2577 69.3257 29.5438C68.7934 29.8457 68.2531 30.0721 67.7049 30.2231C67.1646 30.382 66.5409 30.4615 65.8337 30.4615C64.6578 30.4615 63.6408 30.2946 62.7827 29.9609C61.9326 29.6272 61.2294 29.1783 60.6732 28.6142C60.117 28.05 59.6999 27.3866 59.4218 26.6238C59.1517 25.8531 59.0166 25.0189 59.0166 24.121C59.0166 23.3106 59.1636 22.5359 59.4576 21.797C59.7595 21.0501 60.1846 20.3867 60.7328 19.8067C61.2731 19.2426 61.9524 18.7857 62.7708 18.4361C63.5971 18.0865 64.5188 17.9117 65.5358 17.9117C66.6482 17.9117 67.5619 18.0468 68.277 18.3169C68.992 18.5871 69.584 18.9605 70.0527 19.4372C70.5056 19.8901 70.8354 20.4264 71.0419 21.0462C71.2485 21.658 71.3518 22.3015 71.3518 22.9769V23.7516H63.2952C63.2952 25.3804 63.609 26.6199 64.2367 27.47C64.8644 28.3202 65.8616 28.7453 67.2282 28.7453C67.975 28.7453 68.6464 28.5426 69.2423 28.1374C69.8382 27.7243 70.3467 27.2038 70.7678 26.5762L71.6736 27.2317ZM67.1209 22.7028C67.1209 22.2261 67.0971 21.7374 67.0494 21.2369C67.0017 20.7363 66.9183 20.3271 66.7991 20.0093C66.664 19.6359 66.4773 19.3538 66.239 19.1631C66.0085 18.9724 65.7146 18.8771 65.357 18.8771C64.7452 18.8771 64.2566 19.187 63.8911 19.8067C63.5256 20.4264 63.327 21.4077 63.2952 22.7505L67.1209 22.7028ZM88.5615 30.0801H81.3868V29.2101C81.5378 29.1942 81.7205 29.1743 81.9351 29.1505C82.1496 29.1266 82.3125 29.0869 82.4237 29.0313C82.5906 28.9439 82.7097 28.8168 82.7813 28.6499C82.8528 28.4831 82.8885 28.2367 82.8885 27.911V22.3333C82.8885 21.5229 82.7376 20.9151 82.4356 20.5099C82.1417 20.0967 81.7047 19.8901 81.1246 19.8901C80.8068 19.8901 80.5089 19.9378 80.2308 20.0331C79.9606 20.1285 79.6945 20.2675 79.4323 20.4503C79.2019 20.6092 79.0151 20.7721 78.8721 20.9389C78.7371 21.1058 78.6218 21.2528 78.5265 21.3799V27.7799C78.5265 28.058 78.5662 28.2924 78.6457 28.4831C78.7251 28.6658 78.8562 28.8048 79.039 28.9002C79.1661 28.9717 79.325 29.0353 79.5157 29.0909C79.7064 29.1465 79.8931 29.1862 80.0759 29.2101V30.0801H72.8297V29.2101C73.0283 29.1942 73.2269 29.1743 73.4256 29.1505C73.6321 29.1187 73.8069 29.079 73.95 29.0313C74.2042 28.9439 74.379 28.8088 74.4744 28.6261C74.5697 28.4433 74.6174 28.205 74.6174 27.911V20.9747C74.6174 20.7284 74.5538 20.486 74.4267 20.2477C74.2996 20.0093 74.1327 19.8146 73.9261 19.6637C73.7831 19.5683 73.6004 19.4889 73.3779 19.4253C73.1634 19.3618 72.925 19.3181 72.6628 19.2942V18.4242L78.3477 18.1143L78.5265 18.2931V20.0212H78.5742C78.7966 19.8226 79.0668 19.5842 79.3846 19.3061C79.7024 19.028 79.9964 18.8016 80.2665 18.6268C80.5605 18.4361 80.9459 18.2732 81.4226 18.1382C81.8993 18.0031 82.4078 17.9356 82.9481 17.9356C84.2432 17.9356 85.2125 18.305 85.8561 19.0439C86.5076 19.7749 86.8334 20.7482 86.8334 21.9639V27.8037C86.8334 28.0977 86.8771 28.3321 86.9645 28.5069C87.0519 28.6817 87.2148 28.8207 87.4531 28.924C87.5803 28.9796 87.7352 29.0353 87.9179 29.0909C88.1086 29.1465 88.3232 29.1862 88.5615 29.2101V30.0801ZM104.973 30.0801H99.3593C98.6681 28.8644 98.0364 27.8355 97.4643 26.9933C96.8923 26.1431 96.352 25.3565 95.8435 24.6335L95.1284 25.2413V27.8395C95.1284 28.1255 95.1681 28.3599 95.2476 28.5426C95.335 28.7254 95.4978 28.8605 95.7362 28.9479C95.8792 29.0114 96.0461 29.067 96.2368 29.1147C96.4275 29.1624 96.6181 29.1942 96.8088 29.2101V30.0801H89.4315V29.2101C89.6302 29.1942 89.8288 29.1743 90.0274 29.1505C90.2261 29.1187 90.4009 29.079 90.5518 29.0313C90.8061 28.9439 90.9769 28.8088 91.0643 28.6261C91.1597 28.4433 91.2073 28.205 91.2073 27.911V14.6223C91.2073 14.3601 91.1477 14.09 91.0286 13.8119C90.9173 13.5259 90.7505 13.3113 90.528 13.1683C90.377 13.073 90.1506 12.9935 89.8487 12.93C89.5468 12.8664 89.2726 12.8267 89.0263 12.8108V11.9408L94.9496 11.6309L95.1284 11.8216V24.121C95.7163 23.5966 96.3758 22.9888 97.1068 22.2976C97.8457 21.6063 98.4376 21.0343 98.8826 20.5814C99.1448 20.3112 99.2878 20.1086 99.3116 19.9735C99.3434 19.8305 99.3593 19.7431 99.3593 19.7114C99.3593 19.5683 99.2322 19.4492 98.9779 19.3538C98.7316 19.2585 98.3582 19.175 97.8576 19.1035V18.2573H103.912V19.0797C103.117 19.3022 102.51 19.5127 102.089 19.7114C101.675 19.902 101.222 20.1603 100.73 20.486C100.404 20.7006 100.086 20.927 99.7764 21.1654C99.4745 21.3958 99.1249 21.6858 98.7276 22.0354C99.5063 23.1636 100.225 24.2084 100.885 25.1698C101.544 26.1312 102.236 27.1482 102.959 28.2209C103.205 28.5943 103.511 28.8446 103.876 28.9717C104.242 29.0988 104.607 29.1783 104.973 29.2101V30.0801ZM112.636 30.0801H105.104V29.2101C105.31 29.1942 105.513 29.1743 105.712 29.1505C105.91 29.1266 106.081 29.0869 106.224 29.0313C106.478 28.9359 106.657 28.8009 106.76 28.6261C106.864 28.4433 106.915 28.205 106.915 27.911V20.9747C106.915 20.6966 106.852 20.4542 106.725 20.2477C106.598 20.0331 106.439 19.8623 106.248 19.7352C106.105 19.6398 105.886 19.5485 105.592 19.4611C105.306 19.3737 105.044 19.3181 104.806 19.2942V18.4242L110.646 18.1143L110.824 18.2931V27.7561C110.824 28.0341 110.884 28.2725 111.003 28.4711C111.122 28.6618 111.293 28.8048 111.516 28.9002C111.675 28.9717 111.849 29.0353 112.04 29.0909C112.231 29.1465 112.429 29.1862 112.636 29.2101V30.0801ZM110.896 13.8238C110.896 14.4277 110.662 14.9441 110.193 15.3732C109.732 15.7943 109.184 16.0048 108.548 16.0048C107.905 16.0048 107.348 15.7943 106.88 15.3732C106.419 14.9441 106.188 14.4277 106.188 13.8238C106.188 13.22 106.419 12.7035 106.88 12.2745C107.348 11.8454 107.905 11.6309 108.548 11.6309C109.192 11.6309 109.744 11.8454 110.205 12.2745C110.666 12.7035 110.896 13.22 110.896 13.8238ZM129.464 30.0801H122.29V29.2101C122.441 29.1942 122.623 29.1743 122.838 29.1505C123.052 29.1266 123.215 29.0869 123.327 29.0313C123.493 28.9439 123.613 28.8168 123.684 28.6499C123.756 28.4831 123.791 28.2367 123.791 27.911V22.3333C123.791 21.5229 123.64 20.9151 123.338 20.5099C123.044 20.0967 122.607 19.8901 122.027 19.8901C121.71 19.8901 121.412 19.9378 121.134 20.0331C120.863 20.1285 120.597 20.2675 120.335 20.4503C120.105 20.6092 119.918 20.7721 119.775 20.9389C119.64 21.1058 119.525 21.2528 119.429 21.3799V27.7799C119.429 28.058 119.469 28.2924 119.549 28.4831C119.628 28.6658 119.759 28.8048 119.942 28.9002C120.069 28.9717 120.228 29.0353 120.419 29.0909C120.609 29.1465 120.796 29.1862 120.979 29.2101V30.0801H113.733V29.2101C113.931 29.1942 114.13 29.1743 114.328 29.1505C114.535 29.1187 114.71 29.079 114.853 29.0313C115.107 28.9439 115.282 28.8088 115.377 28.6261C115.473 28.4433 115.52 28.205 115.52 27.911V20.9747C115.52 20.7284 115.457 20.486 115.33 20.2477C115.202 20.0093 115.036 19.8146 114.829 19.6637C114.686 19.5683 114.503 19.4889 114.281 19.4253C114.066 19.3618 113.828 19.3181 113.566 19.2942V18.4242L119.251 18.1143L119.429 18.2931V20.0212H119.477C119.699 19.8226 119.97 19.5842 120.287 19.3061C120.605 19.028 120.899 18.8016 121.169 18.6268C121.463 18.4361 121.849 18.2732 122.325 18.1382C122.802 18.0031 123.311 17.9356 123.851 17.9356C125.146 17.9356 126.115 18.305 126.759 19.0439C127.41 19.7749 127.736 20.7482 127.736 21.9639V27.8037C127.736 28.0977 127.78 28.3321 127.867 28.5069C127.955 28.6817 128.118 28.8207 128.356 28.924C128.483 28.9796 128.638 29.0353 128.821 29.0909C129.011 29.1465 129.226 29.1862 129.464 29.2101V30.0801ZM136.103 30.4853C135.332 30.4853 134.577 30.3701 133.838 30.1397C133.107 29.9172 132.539 29.6788 132.134 29.4246L131.776 30.235H130.847L130.692 25.7896H131.562C131.681 26.1471 131.88 26.5523 132.158 27.0052C132.436 27.4502 132.754 27.8514 133.111 28.2089C133.485 28.5665 133.91 28.8684 134.387 29.1147C134.871 29.361 135.388 29.4842 135.936 29.4842C136.659 29.4842 137.195 29.3451 137.545 29.067C137.902 28.781 138.081 28.344 138.081 27.7561C138.081 27.4382 138.002 27.176 137.843 26.9695C137.684 26.7629 137.465 26.5841 137.187 26.4331C136.877 26.2742 136.536 26.1392 136.162 26.0279C135.797 25.9167 135.344 25.7816 134.804 25.6227C134.263 25.4638 133.799 25.3049 133.409 25.146C133.028 24.9791 132.631 24.7209 132.217 24.3713C131.86 24.0614 131.574 23.688 131.359 23.251C131.145 22.814 131.038 22.2936 131.038 21.6898C131.038 20.5695 131.506 19.6637 132.444 18.9724C133.389 18.2812 134.625 17.9356 136.15 17.9356C136.873 17.9356 137.537 18.011 138.141 18.162C138.753 18.305 139.265 18.4639 139.678 18.6387L139.928 17.9356H140.834L141.025 21.9996H140.179C139.901 21.1733 139.424 20.4622 138.749 19.8663C138.073 19.2624 137.346 18.9605 136.568 18.9605C135.956 18.9605 135.475 19.0876 135.125 19.3419C134.776 19.5961 134.601 19.9497 134.601 20.4026C134.601 21.0064 134.855 21.4434 135.364 21.7136C135.88 21.9837 136.599 22.238 137.521 22.4763C138.943 22.8418 139.984 23.3424 140.644 23.978C141.303 24.6057 141.633 25.4082 141.633 26.3855C141.633 27.6885 141.12 28.6976 140.095 29.4127C139.078 30.1278 137.747 30.4853 136.103 30.4853Z" fill="#797A7B"/>
</g>
<defs>
<filter id="filter0_d_347_447" x="-1" y="0" width="147.965" height="53" filterUnits="userSpaceOnUse" color-interpolation-filters="sRGB">
<feFlood flood-opacity="0" result="BackgroundImageFix"/>
<feColorMatrix in="SourceAlpha" type="matrix" values="0 0 0 0 0 0 0 0 0 0 0 0 0 0 0 0 0 0 127 0" result="hardAlpha"/>
<feOffset dy="4"/>
<feGaussianBlur stdDeviation="2"/>
<feComposite in2="hardAlpha" operator="out"/>
<feColorMatrix type="matrix" values="0 0 0 0 0 0 0 0 0 0 0 0 0 0 0 0 0 0 0.25 0"/>
<feBlend mode="normal" in2="BackgroundImageFix" result="effect1_dropShadow_347_447"/>
<feBlend mode="normal" in="SourceGraphic" in2="effect1_dropShadow_347_447" result="shape"/>
</filter>
</defs>
</svg>
