<svg width="165" height="29" viewBox="0 0 165 29" fill="none" xmlns="http://www.w3.org/2000/svg">
<g style="mix-blend-mode:luminosity">
<path d="M26.8472 6.90548C26.6854 6.38763 26.297 5.96688 25.8115 5.70796L15.9401 0.982627C15.6812 0.853166 15.3899 0.820801 15.1309 0.820801C14.872 0.820801 14.5807 0.820801 14.3218 0.885531L4.4504 5.64323C3.96492 5.86979 3.6089 6.29054 3.47944 6.84075L1.05204 17.4889C0.954947 18.0391 1.08441 18.5894 1.40806 19.0425L8.23714 27.4898C8.62552 27.8782 9.17573 28.1371 9.72594 28.1695H20.6007C21.1833 28.2342 21.7335 27.9753 22.0895 27.4898L28.9186 19.0425C29.2422 18.5894 29.3717 18.0391 29.307 17.4889L26.8472 6.90548Z" fill="#326DE6"/>
</g>
<path d="M25.326 17.0681C25.2936 17.0681 25.2613 17.0681 25.2613 17.0357C25.2613 17.0034 25.1965 17.0034 25.1318 17.0034C25.0023 16.971 24.8729 16.971 24.7434 16.971C24.6787 16.971 24.614 16.971 24.5492 16.9386H24.5169C24.1608 16.9063 23.7725 16.8415 23.4164 16.7444C23.3193 16.7121 23.2222 16.615 23.1899 16.5179L22.931 16.4531C23.0604 15.5146 22.9957 14.5436 22.8015 13.605C22.5749 12.6664 22.1866 11.7602 21.6687 10.951L21.8629 10.7569V10.7245C21.8629 10.6274 21.8953 10.4979 21.96 10.4332C22.2513 10.1743 22.5426 9.98008 22.8662 9.78589C22.931 9.75353 22.9957 9.72116 23.0604 9.6888C23.1899 9.62406 23.287 9.55933 23.4164 9.4946C23.4488 9.46224 23.4812 9.46224 23.5135 9.42987C23.5459 9.39751 23.5135 9.39751 23.5135 9.36514C23.8048 9.13859 23.8696 8.7502 23.643 8.45891C23.5459 8.32945 23.3517 8.23236 23.1899 8.23236C23.0281 8.23236 22.8662 8.29709 22.7368 8.39418L22.7044 8.42655C22.672 8.45891 22.6397 8.49128 22.6073 8.49128C22.5102 8.58838 22.4131 8.68547 22.3484 8.78257C22.316 8.8473 22.2513 8.87966 22.2189 8.91203C21.9924 9.17095 21.7011 9.42987 21.4098 9.62407C21.3451 9.65643 21.2803 9.6888 21.2156 9.6888C21.1832 9.6888 21.1185 9.6888 21.0861 9.65643H21.0538L20.7948 9.81826C20.5359 9.55933 20.2446 9.30041 19.9857 9.04149C18.7882 8.1029 17.2994 7.52032 15.7782 7.35849L15.7459 7.09957V7.13194C15.6488 7.06721 15.6164 6.97011 15.584 6.87301C15.584 6.517 15.584 6.16098 15.6488 5.77259V5.74023C15.6488 5.6755 15.6811 5.61077 15.6811 5.54604C15.7135 5.41658 15.7135 5.28711 15.7459 5.15765V4.96346C15.7782 4.63981 15.5193 4.31615 15.1957 4.28379C15.0015 4.25142 14.8073 4.34852 14.6454 4.51035C14.516 4.63981 14.4512 4.80163 14.4512 4.96346V5.12529C14.4512 5.25475 14.4836 5.38421 14.516 5.51367C14.5483 5.5784 14.5483 5.64313 14.5483 5.70786V5.74023C14.6131 6.09625 14.6131 6.45227 14.6131 6.84065C14.5807 6.93774 14.5483 7.03484 14.4512 7.09957V7.1643L14.4189 7.42322C14.0629 7.45559 13.7068 7.52032 13.3185 7.58505C11.7973 7.9087 10.4056 8.71784 9.33753 9.85062L9.14334 9.72116H9.11097C9.07861 9.72116 9.04624 9.75353 8.98151 9.75353C8.91678 9.75353 8.85205 9.72116 8.78732 9.6888C8.49603 9.46224 8.20475 9.20332 7.97819 8.94439C7.94582 8.87966 7.88109 8.8473 7.84873 8.81493C7.75163 8.71784 7.6869 8.62074 7.5898 8.52364C7.55744 8.49128 7.52507 8.49128 7.49271 8.45891C7.46034 8.42655 7.46034 8.42655 7.46034 8.42655C7.33088 8.32945 7.16906 8.26472 7.00723 8.26472C6.81304 8.26472 6.65121 8.32945 6.55411 8.49128C6.35992 8.78257 6.42465 9.17095 6.68358 9.39751C6.71594 9.39751 6.71594 9.42987 6.71594 9.42987C6.71594 9.42987 6.78067 9.4946 6.81304 9.4946C6.91013 9.55933 7.03959 9.62406 7.16906 9.6888C7.23379 9.72116 7.29852 9.75353 7.36325 9.78589C7.6869 9.98008 8.01055 10.1743 8.26948 10.4332C8.33421 10.4979 8.39894 10.6274 8.36657 10.7245V10.6921L8.56076 10.8863C8.5284 10.951 8.49603 10.9834 8.46367 11.0481C7.46034 12.634 7.03959 14.5112 7.33088 16.356L7.07196 16.4208C7.07196 16.4531 7.03959 16.4531 7.03959 16.4531C7.00723 16.5502 6.91013 16.615 6.81304 16.6797C6.45702 16.7768 6.101 16.8415 5.71262 16.8739C5.64789 16.8739 5.58316 16.8739 5.51842 16.9063C5.38896 16.9063 5.2595 16.9386 5.13004 16.9386C5.09768 16.9386 5.06531 16.971 5.00058 16.971C4.96821 16.971 4.96821 16.971 4.93585 17.0034C4.57983 17.0681 4.35327 17.3917 4.418 17.7478C4.48273 18.039 4.77402 18.2332 5.06531 18.2009C5.13004 18.2009 5.16241 18.2009 5.22714 18.1685C5.2595 18.1685 5.2595 18.1685 5.2595 18.1361C5.2595 18.1038 5.3566 18.1361 5.38896 18.1361C5.51842 18.1038 5.64789 18.039 5.74498 18.0067C5.80971 17.9743 5.87444 17.9419 5.93917 17.9419H5.97154C6.32756 17.8125 6.65121 17.7154 7.03959 17.6507H7.07196C7.16905 17.6507 7.26615 17.683 7.33088 17.7478C7.36325 17.7478 7.36325 17.7801 7.36325 17.7801L7.65453 17.7478C8.14001 19.2366 9.04624 20.5635 10.3085 21.5345C10.5998 21.7611 10.8587 21.9552 11.1824 22.1171L11.0205 22.3436C11.0205 22.376 11.0529 22.376 11.0529 22.376C11.1176 22.4731 11.1176 22.6026 11.0853 22.6996C10.9558 23.0233 10.7616 23.347 10.5674 23.6382V23.6706C10.535 23.7353 10.5027 23.7677 10.438 23.8324C10.3732 23.8972 10.3085 24.0266 10.2114 24.1561C10.179 24.1885 10.179 24.2208 10.1467 24.2532C10.1467 24.2532 10.1467 24.2855 10.1143 24.2855C9.95247 24.6092 10.0819 24.9976 10.3732 25.1594C10.438 25.1918 10.535 25.2241 10.5998 25.2241C10.8587 25.2241 11.0853 25.0623 11.2147 24.8358C11.2147 24.8358 11.2147 24.8034 11.2471 24.8034C11.2471 24.771 11.2794 24.7387 11.3118 24.7063C11.3442 24.5768 11.4089 24.4797 11.4413 24.3503L11.506 24.1561C11.6031 23.8001 11.7649 23.4764 11.9268 23.1528C11.9915 23.0557 12.0886 22.9909 12.1857 22.9586C12.218 22.9586 12.218 22.9586 12.218 22.9262L12.3475 22.6673C13.2537 23.0233 14.1923 23.1851 15.1633 23.1851C15.7459 23.1851 16.3284 23.1204 16.911 22.9586C17.267 22.8938 17.623 22.7644 17.9467 22.6673L18.0762 22.8938C18.1085 22.8938 18.1085 22.8938 18.1085 22.9262C18.2056 22.9586 18.3027 23.0233 18.3675 23.1204C18.5293 23.4441 18.6911 23.7677 18.7882 24.1237V24.1561L18.8529 24.3503C18.8853 24.4797 18.9177 24.6092 18.9824 24.7063C19.0148 24.7387 19.0148 24.771 19.0471 24.8034C19.0471 24.8034 19.0471 24.8358 19.0795 24.8358C19.2089 25.0623 19.4355 25.2241 19.6944 25.2241C19.7915 25.2241 19.8563 25.1918 19.9534 25.1594C20.0828 25.0947 20.2123 24.9652 20.2446 24.8034C20.277 24.6416 20.277 24.4797 20.2123 24.3179C20.2123 24.2855 20.1799 24.2855 20.1799 24.2855C20.1799 24.2532 20.1475 24.2208 20.1152 24.1885C20.0504 24.059 19.9857 23.9619 19.8886 23.8648C19.8563 23.8001 19.8239 23.7677 19.7592 23.703V23.6382C19.5326 23.347 19.3708 23.0233 19.2413 22.6996C19.2089 22.6026 19.2089 22.4731 19.2737 22.376C19.2737 22.3436 19.306 22.3436 19.306 22.3436L19.209 22.0847C20.8596 21.0814 22.1218 19.5278 22.7044 17.683L22.9633 17.7154C22.9957 17.7154 22.9957 17.683 22.9957 17.683C23.0604 17.6183 23.1575 17.5859 23.2546 17.5859H23.287C23.643 17.6507 23.999 17.7478 24.3227 17.8772H24.355C24.4198 17.9096 24.4845 17.9419 24.5492 17.9419C24.6787 18.0067 24.7758 18.0714 24.9052 18.1038C24.9376 18.1038 24.97 18.1361 25.0347 18.1361C25.0671 18.1361 25.0671 18.1361 25.0994 18.1685C25.1642 18.2009 25.1965 18.2009 25.2613 18.2009C25.5526 18.2009 25.8115 18.0067 25.9086 17.7478C25.8762 17.3917 25.6173 17.1328 25.326 17.0681ZM15.9724 16.0648L15.0986 16.4855L14.2247 16.0648L13.9981 15.1262L14.6131 14.3494H15.584L16.199 15.1262L15.9724 16.0648ZM21.248 13.961C21.4098 14.6407 21.4422 15.3204 21.3774 16L18.3027 15.1262C18.0114 15.0614 17.8496 14.7701 17.9143 14.4789C17.9467 14.3818 17.9791 14.317 18.0438 14.2523L20.4712 12.0515C20.8272 12.634 21.0861 13.2813 21.248 13.961ZM19.5002 10.8539L16.8463 12.7311C16.6197 12.8606 16.2961 12.8282 16.1342 12.6017C16.0695 12.5369 16.0371 12.4722 16.0371 12.3751L15.843 9.10622C17.267 9.26805 18.5293 9.88299 19.5002 10.8539ZM13.6421 9.20332L14.2894 9.07385L14.1276 12.3104C14.1276 12.6017 13.8687 12.8282 13.5774 12.8282C13.4803 12.8282 13.4156 12.7959 13.3185 12.7635L10.6321 10.8539C11.4736 10.0448 12.5093 9.46224 13.6421 9.20332ZM9.69355 12.0515L12.0886 14.1876C12.3151 14.3818 12.3475 14.7054 12.1533 14.932C12.0886 15.0291 12.0239 15.0614 11.8944 15.0938L8.75496 16C8.65786 14.6407 8.98151 13.249 9.69355 12.0515ZM9.14334 17.5212L12.3475 16.971C12.6064 16.971 12.8653 17.1328 12.8977 17.3917C12.9301 17.4888 12.9301 17.6183 12.8653 17.7154L11.6355 20.693C10.5027 19.9486 9.59645 18.8158 9.14334 17.5212ZM16.4903 21.5345C16.0371 21.6316 15.584 21.6963 15.0986 21.6963C14.4189 21.6963 13.7068 21.5669 13.0595 21.3727L14.6454 18.4922C14.8073 18.298 15.0662 18.2332 15.2927 18.3627C15.3898 18.4274 15.4546 18.4922 15.5517 18.5893L17.1052 21.405C16.911 21.4374 16.7168 21.4698 16.4903 21.5345ZM20.4388 18.7187C19.9534 19.4955 19.2737 20.1752 18.4969 20.6606L17.2347 17.6183C17.1699 17.3594 17.2994 17.1005 17.526 17.0034C17.623 16.971 17.7201 16.9386 17.8172 16.9386L21.0538 17.4888C20.8919 17.9419 20.6978 18.3627 20.4388 18.7187Z" fill="white"/>
<path d="M157.83 21.049C158.283 21.0813 158.768 21.0166 159.189 20.8548C159.448 20.7253 159.61 20.434 159.577 20.1428C159.545 19.8191 159.351 19.5278 159.059 19.4307C158.574 19.1394 158.024 18.8805 157.474 18.7187C156.923 18.5245 156.438 18.2979 155.985 18.0714C155.564 17.8772 155.208 17.6183 154.852 17.2946C154.528 16.971 154.302 16.6149 154.14 16.1942C153.946 15.7087 153.881 15.1909 153.881 14.673C153.849 13.605 154.334 12.5693 155.176 11.922C156.049 11.2423 157.215 10.9186 158.703 10.9186C159.415 10.9186 160.16 10.9834 160.872 11.1452C161.422 11.2423 161.972 11.3718 162.523 11.5659L161.908 14.317C161.454 14.1552 161.034 14.0581 160.581 13.9286C160.063 13.7992 159.513 13.7668 158.995 13.7668C157.894 13.7668 157.344 14.0581 157.344 14.673C157.344 14.8025 157.376 14.9319 157.409 15.0614C157.474 15.1909 157.571 15.288 157.7 15.3851C157.83 15.4821 158.024 15.5792 158.25 15.7087C158.477 15.8382 158.801 15.9676 159.189 16.0971C159.836 16.3236 160.484 16.6149 161.066 16.9386C161.519 17.1651 161.908 17.4564 162.231 17.8448C162.523 18.1361 162.717 18.4921 162.846 18.9129C162.976 19.366 163.04 19.8191 163.04 20.2722C163.105 21.3726 162.587 22.4407 161.649 23.0556C160.742 23.6706 159.448 23.9942 157.765 23.9942C156.826 24.0266 155.92 23.9295 155.014 23.7029C154.496 23.5735 154.01 23.4116 153.525 23.2498L154.108 20.4017C154.69 20.6282 155.305 20.8224 155.92 20.9519C156.567 20.9842 157.182 21.049 157.83 21.049ZM139.996 17.4888C139.964 16.5178 140.158 15.5469 140.482 14.6406C140.773 13.8639 141.226 13.1842 141.809 12.5693C142.359 12.0191 142.974 11.5983 143.686 11.3394C144.398 11.0481 145.142 10.9186 145.887 10.9186C147.635 10.9186 149.026 11.4688 150.03 12.5369C151.033 13.605 151.551 15.1909 151.551 17.2622C151.551 17.4564 151.551 17.683 151.518 17.9419C151.518 18.2008 151.486 18.395 151.486 18.5892H143.589C143.654 19.2689 144.01 19.9162 144.592 20.3046C145.304 20.7577 146.146 20.9842 146.987 20.9519C147.602 20.9519 148.249 20.8872 148.864 20.7901C149.382 20.693 149.9 20.5311 150.386 20.3046L150.871 23.1527C150.644 23.2822 150.386 23.3469 150.127 23.444C149.771 23.5411 149.415 23.6382 149.059 23.6706C148.67 23.7353 148.282 23.8 147.829 23.8648C147.408 23.8971 146.955 23.9295 146.502 23.9295C145.498 23.9619 144.527 23.8 143.589 23.444C142.812 23.1527 142.132 22.6996 141.55 22.117C141 21.5345 140.611 20.8224 140.352 20.078C140.126 19.2042 139.996 18.3303 139.996 17.4888ZM148.185 16.1618C148.185 15.8705 148.12 15.5792 148.023 15.288C147.958 14.9967 147.796 14.7701 147.635 14.5436C147.44 14.317 147.214 14.1228 146.955 13.9933C146.631 13.8315 146.308 13.7668 145.952 13.7668C145.595 13.7668 145.272 13.8315 144.948 13.9933C144.689 14.1228 144.43 14.2846 144.236 14.5112C144.042 14.7377 143.88 14.9967 143.783 15.288C143.686 15.5792 143.621 15.8705 143.589 16.1618H148.185ZM130.513 8.13522L134.009 7.58501V11.2099H138.216V14.1228H134.009V18.4598C133.976 19.0747 134.106 19.6896 134.397 20.2075C134.656 20.6282 135.174 20.8548 135.983 20.8548C136.371 20.8548 136.76 20.8224 137.116 20.7577C137.504 20.693 137.86 20.5959 138.216 20.4664L138.702 23.1851C138.249 23.3793 137.763 23.5087 137.278 23.6382C136.663 23.7677 136.015 23.8324 135.368 23.8324C134.559 23.8648 133.75 23.7353 133.005 23.444C132.423 23.2175 131.905 22.8291 131.517 22.376C131.128 21.8905 130.869 21.3079 130.707 20.693C130.546 19.9809 130.481 19.2365 130.513 18.5245V8.13522ZM116.37 17.4888C116.337 16.5178 116.531 15.5469 116.855 14.6406C117.146 13.8639 117.6 13.1842 118.182 12.5693C118.732 12.0191 119.347 11.5983 120.059 11.3394C120.771 11.0481 121.516 10.9186 122.26 10.9186C124.008 10.9186 125.4 11.4688 126.403 12.5369C127.406 13.605 127.924 15.1909 127.924 17.2622C127.924 17.4564 127.924 17.683 127.892 17.9419C127.859 18.2008 127.859 18.395 127.859 18.5892H119.93C119.995 19.2689 120.351 19.9162 120.933 20.3046C121.645 20.7577 122.487 20.9842 123.328 20.9519C123.943 20.9519 124.59 20.8872 125.205 20.7901C125.723 20.693 126.241 20.5311 126.759 20.3046L127.244 23.1527C127.018 23.2822 126.759 23.3469 126.5 23.444C126.144 23.5411 125.788 23.6382 125.432 23.6706C125.044 23.7353 124.655 23.8 124.202 23.8648C123.781 23.8971 123.328 23.9295 122.875 23.9295C121.872 23.9619 120.901 23.8 119.962 23.444C119.185 23.1527 118.506 22.6996 117.923 22.117C117.373 21.5345 116.985 20.8224 116.726 20.078C116.467 19.2042 116.337 18.3303 116.37 17.4888ZM124.558 16.1618C124.558 15.8705 124.493 15.5792 124.396 15.288C124.331 14.9967 124.17 14.7701 124.008 14.5436C123.814 14.317 123.587 14.1228 123.328 13.9933C123.005 13.8315 122.681 13.7668 122.325 13.7668C121.969 13.7668 121.645 13.8315 121.322 13.9933C121.063 14.1228 120.836 14.2846 120.642 14.5112C120.448 14.7377 120.286 14.9967 120.189 15.288C120.092 15.5792 120.027 15.8705 119.995 16.1618H124.558ZM103.1 11.6307C103.844 11.4365 104.621 11.2747 105.398 11.1452C106.369 10.9834 107.372 10.9186 108.343 10.9186C109.217 10.8863 110.091 11.0481 110.932 11.3394C111.58 11.5659 112.162 11.9543 112.583 12.4722C113.004 12.99 113.295 13.605 113.457 14.2523C113.651 14.9967 113.716 15.7734 113.716 16.5502V23.5087H110.253V17.0033C110.253 15.8705 110.091 15.0938 109.799 14.6083C109.508 14.1552 108.958 13.8962 108.149 13.8962C107.89 13.8962 107.631 13.8962 107.34 13.9286C107.048 13.9286 106.822 13.961 106.595 13.9933V23.5087H103.1V11.6307ZM100.64 14.317C100.316 14.2523 99.9604 14.1552 99.5397 14.0904C99.0865 13.9933 98.6334 13.961 98.1803 13.961C97.9214 13.961 97.6625 13.9933 97.3712 14.0257C97.1446 14.0581 96.9181 14.0904 96.6915 14.1552V23.5735H93.1961V11.8572C93.9081 11.5983 94.6525 11.4041 95.3969 11.2423C96.3355 11.0157 97.3065 10.9186 98.2451 10.951C98.4716 10.951 98.6982 10.9834 98.9247 10.9834C99.1836 10.9834 99.4426 11.0157 99.7339 11.0805C99.9928 11.1128 100.252 11.1452 100.543 11.2099C100.77 11.2423 100.996 11.307 101.223 11.4041L100.64 14.317ZM78.923 17.4888C78.8906 16.5178 79.0848 15.5469 79.4084 14.6406C79.6997 13.8639 80.1528 13.1842 80.7354 12.5693C81.2856 12.0191 81.9006 11.5983 82.6126 11.3394C83.3246 11.0481 84.069 10.9186 84.8134 10.9186C86.5612 10.9186 87.9529 11.4688 88.9562 12.5369C89.9595 13.605 90.4774 15.1909 90.4774 17.2299C90.4774 17.4241 90.4774 17.6506 90.445 17.9095C90.4127 18.1685 90.4127 18.3627 90.4127 18.5569H82.4831C82.5479 19.2365 82.9039 19.8838 83.4865 20.2722C84.1985 20.7253 85.04 20.9519 85.8815 20.9195C86.4965 20.9195 87.1438 20.8548 87.7587 20.7577C88.2765 20.6606 88.7944 20.4988 89.2799 20.3046L89.7653 23.1527C89.5388 23.2822 89.2799 23.3469 89.0209 23.444C88.6649 23.5411 88.3089 23.6382 87.9529 23.6706C87.5645 23.7353 87.1761 23.8 86.723 23.8648C86.3023 23.8971 85.8491 23.9295 85.396 23.9295C84.3927 23.9619 83.4217 23.8 82.4831 23.444C81.7064 23.1527 81.0267 22.6996 80.4441 22.117C79.8939 21.5345 79.5055 20.8224 79.2466 20.078C79.0524 19.2042 78.923 18.3627 78.923 17.4888ZM87.1438 16.1618C87.1438 15.8705 87.079 15.5792 86.9819 15.288C86.9172 14.9967 86.7554 14.7701 86.5935 14.5436C86.3993 14.317 86.1728 14.1228 85.9139 13.9933C85.5902 13.8315 85.2666 13.7668 84.9106 13.7668C84.5545 13.7668 84.2309 13.8315 83.9072 13.9933C83.6483 14.1228 83.3894 14.2846 83.1952 14.5112C83.001 14.7377 82.8392 14.9967 82.7421 15.288C82.645 15.5792 82.5802 15.8705 82.5479 16.1618H87.1438ZM73.259 17.2946C73.259 15.029 72.4175 13.9286 70.7669 13.9286C70.4109 13.9286 70.0549 13.961 69.6989 14.0581C69.4076 14.1228 69.1163 14.2523 68.8574 14.4141V20.7577C69.0192 20.7901 69.2457 20.8224 69.5047 20.8548C69.7636 20.8872 70.0549 20.8872 70.3785 20.8872C71.22 20.9519 72.0292 20.5959 72.547 19.9162C73.0325 19.1394 73.2914 18.2332 73.259 17.2946ZM76.8192 17.4241C76.8192 18.3303 76.6898 19.2365 76.3661 20.1104C76.1072 20.8872 75.6864 21.5668 75.1362 22.1494C74.5536 22.732 73.874 23.1851 73.1296 23.4764C72.2557 23.8 71.3495 23.9295 70.4109 23.9295C69.9901 23.9295 69.537 23.8971 69.0839 23.8648C68.6308 23.8324 68.1777 23.7677 67.7246 23.7353C67.3038 23.6706 66.8831 23.6058 66.4623 23.5087C66.0416 23.444 65.6856 23.3469 65.3943 23.2175V5.90202L68.8897 5.35181V11.5012C69.2781 11.3394 69.6989 11.2099 70.1196 11.1128C70.5727 11.0157 71.0258 10.9834 71.4789 10.9834C72.2881 10.9834 73.0648 11.1128 73.8092 11.4688C74.4566 11.7601 75.0391 12.2133 75.4922 12.7635C75.9777 13.3784 76.3337 14.0581 76.5279 14.8025C76.7221 15.6116 76.8192 16.5178 76.8192 17.4241ZM62.0606 23.1204C61.3162 23.3146 60.5395 23.4764 59.7627 23.5735C58.7917 23.7353 57.7884 23.8 56.8175 23.8C55.9112 23.8324 55.0374 23.6706 54.1959 23.3793C53.5486 23.1204 52.9984 22.732 52.5452 22.2141C52.1245 21.6639 51.8332 21.049 51.6714 20.3693C51.4772 19.6249 51.4125 18.8158 51.4125 18.039V11.2099H54.9079V17.6506C54.9079 18.7834 55.0697 19.5925 55.361 20.078C55.6523 20.5635 56.2025 20.8224 57.0117 20.8224C57.2706 20.8224 57.5295 20.8224 57.8208 20.7901C58.1121 20.7577 58.3386 20.7577 58.5652 20.693V11.2099H62.0606V23.1204ZM41.6705 15.6763C42.0265 15.288 42.3502 14.8996 42.7386 14.5112C43.0946 14.0904 43.4506 13.7021 43.8066 13.3137C44.1626 12.8929 44.4863 12.5369 44.7776 12.1809C45.0689 11.8249 45.3601 11.5012 45.5867 11.2423H49.7295C48.888 12.1809 48.0788 13.1195 47.3021 13.9933C46.4929 14.8672 45.6514 15.7734 44.7128 16.6797C45.2307 17.1651 45.7162 17.6506 46.1693 18.2008C46.6548 18.7834 47.1402 19.366 47.6257 20.0133C48.0788 20.6282 48.5319 21.2755 48.9203 21.8905C49.3087 22.5054 49.6324 23.088 49.8913 23.6058H45.878C45.6191 23.1851 45.3278 22.7643 45.0041 22.2789C44.6805 21.7934 44.3245 21.3079 44.0008 20.7901C43.6448 20.3046 43.2564 19.8191 42.8357 19.366C42.4796 18.9452 42.0913 18.5569 41.6705 18.2332V23.6382H38.175V5.90202L41.6705 5.35181V15.6763Z" fill="#797A7C"/>
</svg>
