<svg width="169" height="174" viewBox="0 0 169 174" fill="none" xmlns="http://www.w3.org/2000/svg">
<g filter="url(#filter0_f_76_1997)">
<circle cx="123.27" cy="51.8095" r="15.1531" fill="#A2C6D2" fill-opacity="0.5"/>
</g>
<g filter="url(#filter1_f_76_1997)">
<ellipse cx="110.316" cy="38.1531" rx="25.9566" ry="15.1531" fill="#86A8E6" fill-opacity="0.4"/>
</g>
<g filter="url(#filter2_d_76_1997)">
<rect x="36" y="36.6565" width="94.3793" height="94.3793" rx="18.7075" fill="url(#paint0_linear_76_1997)"/>
<rect x="36.7483" y="37.4048" width="92.8827" height="92.8827" rx="17.9592" stroke="url(#paint1_linear_76_1997)" stroke-width="1.4966"/>
</g>
<rect x="43.2031" y="43.8589" width="80.068" height="80.068" rx="11.8793" fill="url(#paint2_linear_76_1997)"/>
<path d="M60.2855 100.393C52.7017 90.2919 52.7017 76.1853 60.2855 66.0838C61.1459 64.9392 62.7779 64.7031 63.9251 65.5661C65.0723 66.4291 65.3033 68.0585 64.4428 69.2057C58.2373 77.4671 58.2373 89.0102 64.4428 97.2715C65.3033 98.4187 65.0723 100.048 63.9251 100.911C62.7828 101.768 61.1501 101.546 60.2855 100.393Z" fill="url(#paint3_linear_76_1997)" fill-opacity="0.7"/>
<path d="M102.391 100.911C101.244 100.048 101.013 98.4188 101.874 97.2716C108.079 89.0101 108.079 77.467 101.874 69.2057C101.013 68.0586 101.244 66.4292 102.391 65.5661C103.538 64.7057 105.173 64.9393 106.031 66.0839C113.615 76.1854 113.615 90.2919 106.031 100.393C105.168 101.544 103.536 101.77 102.391 100.911Z" fill="url(#paint4_linear_76_1997)" fill-opacity="0.7"/>
<path d="M69.5978 95.3681C63.4049 88.4544 63.4049 78.023 69.5978 71.1092C70.5571 70.0407 72.207 69.9544 73.2679 70.9062C74.3364 71.8629 74.4277 73.5077 73.4709 74.5763C69.0495 79.5153 69.0495 86.9619 73.4709 91.901C74.4277 92.9696 74.3364 94.6142 73.2679 95.5711C72.203 96.5267 70.5556 96.4397 69.5978 95.3681Z" fill="url(#paint5_linear_76_1997)" fill-opacity="0.7"/>
<path d="M93.0486 95.5711C91.9801 94.6143 91.8888 92.9695 92.8456 91.901C97.2669 86.9619 97.2669 79.5153 92.8456 74.5762C91.8888 73.5077 91.9801 71.8631 93.0486 70.9061C94.1145 69.9518 95.7618 70.0381 96.7187 71.1092C102.912 78.0228 102.912 88.4542 96.7187 95.368C95.7613 96.4393 94.1137 96.5268 93.0486 95.5711Z" fill="url(#paint6_linear_76_1997)" fill-opacity="0.7"/>
<path d="M83.1583 91.0355C78.8589 91.0355 75.3613 87.538 75.3613 83.2386C75.3613 78.9392 78.8589 75.4417 83.1583 75.4417C87.4577 75.4417 90.9552 78.9392 90.9552 83.2386C90.9552 87.538 87.4578 91.0355 83.1583 91.0355Z" fill="url(#paint7_linear_76_1997)" fill-opacity="0.7"/>
<g filter="url(#filter3_f_76_1997)">
<circle cx="116.069" cy="117.847" r="15.1531" fill="#3CC93C" fill-opacity="0.6"/>
</g>
<defs>
<filter id="filter0_f_76_1997" x="81.5526" y="10.0918" width="83.4354" height="83.4354" filterUnits="userSpaceOnUse" color-interpolation-filters="sRGB">
<feFlood flood-opacity="0" result="BackgroundImageFix"/>
<feBlend mode="normal" in="SourceGraphic" in2="BackgroundImageFix" result="shape"/>
<feGaussianBlur stdDeviation="13.2823" result="effect1_foregroundBlur_76_1997"/>
</filter>
<filter id="filter1_f_76_1997" x="54.0532" y="-7.30613" width="112.526" height="90.9184" filterUnits="userSpaceOnUse" color-interpolation-filters="sRGB">
<feFlood flood-opacity="0" result="BackgroundImageFix"/>
<feBlend mode="normal" in="SourceGraphic" in2="BackgroundImageFix" result="shape"/>
<feGaussianBlur stdDeviation="15.1531" result="effect1_foregroundBlur_76_1997"/>
</filter>
<filter id="filter2_d_76_1997" x="-2.00412" y="3.32923" width="170.388" height="170.387" filterUnits="userSpaceOnUse" color-interpolation-filters="sRGB">
<feFlood flood-opacity="0" result="BackgroundImageFix"/>
<feColorMatrix in="SourceAlpha" type="matrix" values="0 0 0 0 0 0 0 0 0 0 0 0 0 0 0 0 0 0 127 0" result="hardAlpha"/>
<feOffset dy="4.67687"/>
<feGaussianBlur stdDeviation="19.0021"/>
<feComposite in2="hardAlpha" operator="out"/>
<feColorMatrix type="matrix" values="0 0 0 0 0.036 0 0 0 0 0.0413333 0 0 0 0 0.064 0 0 0 1 0"/>
<feBlend mode="normal" in2="BackgroundImageFix" result="effect1_dropShadow_76_1997"/>
<feBlend mode="normal" in="SourceGraphic" in2="effect1_dropShadow_76_1997" result="shape"/>
</filter>
<filter id="filter3_f_76_1997" x="81.8344" y="83.6123" width="68.4694" height="68.4694" filterUnits="userSpaceOnUse" color-interpolation-filters="sRGB">
<feFlood flood-opacity="0" result="BackgroundImageFix"/>
<feBlend mode="normal" in="SourceGraphic" in2="BackgroundImageFix" result="shape"/>
<feGaussianBlur stdDeviation="9.54082" result="effect1_foregroundBlur_76_1997"/>
</filter>
<linearGradient id="paint0_linear_76_1997" x1="118.032" y1="36.6565" x2="63.4065" y2="83.8929" gradientUnits="userSpaceOnUse">
<stop stop-color="#5EE787"/>
<stop offset="0.331593" stop-color="#51A749"/>
<stop offset="1" stop-color="#1E301B"/>
</linearGradient>
<linearGradient id="paint1_linear_76_1997" x1="119.061" y1="41.006" x2="52.79" y2="106.155" gradientUnits="userSpaceOnUse">
<stop stop-color="#EBFCF0"/>
<stop offset="0.295134" stop-color="#83EF7F"/>
<stop offset="0.57639" stop-color="#42F147"/>
<stop offset="1" stop-color="#1D2921"/>
</linearGradient>
<linearGradient id="paint2_linear_76_1997" x1="110.269" y1="52.0902" x2="76.9701" y2="99.7942" gradientUnits="userSpaceOnUse">
<stop stop-color="#3F753B"/>
<stop offset="0.529514" stop-color="#1B3E1C"/>
<stop offset="1" stop-color="#1A2C1C"/>
</linearGradient>
<linearGradient id="paint3_linear_76_1997" x1="56.5099" y1="94.3423" x2="74.5231" y2="86.4343" gradientUnits="userSpaceOnUse">
<stop stop-color="#AAD3E9"/>
<stop offset="1" stop-color="#AAD3E9" stop-opacity="0"/>
</linearGradient>
<linearGradient id="paint4_linear_76_1997" x1="103.266" y1="94.3427" x2="121.279" y2="86.4345" gradientUnits="userSpaceOnUse">
<stop stop-color="#AAD3E9"/>
<stop offset="1" stop-color="#AAD3E9" stop-opacity="0"/>
</linearGradient>
<linearGradient id="paint5_linear_76_1997" x1="66.6466" y1="91.1706" x2="81.3247" y2="83.1803" gradientUnits="userSpaceOnUse">
<stop stop-color="#AAD3E9"/>
<stop offset="1" stop-color="#AAD3E9" stop-opacity="0"/>
</linearGradient>
<linearGradient id="paint6_linear_76_1997" x1="93.8771" y1="91.1701" x2="108.556" y2="83.1802" gradientUnits="userSpaceOnUse">
<stop stop-color="#AAD3E9"/>
<stop offset="1" stop-color="#AAD3E9" stop-opacity="0"/>
</linearGradient>
<linearGradient id="paint7_linear_76_1997" x1="78.2381" y1="87.9974" x2="87.8154" y2="73.238" gradientUnits="userSpaceOnUse">
<stop stop-color="#AAD3E9"/>
<stop offset="1" stop-color="#AAD3E9" stop-opacity="0"/>
</linearGradient>
</defs>
</svg>
