<svg width="82" height="81" viewBox="0 0 82 81" fill="none" xmlns="http://www.w3.org/2000/svg">
<rect x="0.267578" y="0.0484772" width="80.7959" height="80.7959" rx="11.9872" fill="url(#paint0_linear_2111_521)"/>
<path d="M51.1629 20.1896H30.6936C24.5528 20.1896 20.459 24.2834 20.459 30.4242V42.7058C20.459 48.8466 24.5528 52.9404 30.6936 52.9404V57.3004C30.6936 58.9379 32.5154 59.9204 33.8664 58.9993L42.9752 52.9404H51.1629C57.3037 52.9404 61.3976 48.8466 61.3976 42.7058V30.4242C61.3976 24.2834 57.3037 20.1896 51.1629 20.1896ZM40.9283 45.1007C40.0686 45.1007 39.3931 44.4047 39.3931 43.5655C39.3931 42.7262 40.0686 42.0303 40.9283 42.0303C41.788 42.0303 42.4635 42.7262 42.4635 43.5655C42.4635 44.4047 41.788 45.1007 40.9283 45.1007ZM43.5074 36.6059C42.7091 37.1381 42.4635 37.4861 42.4635 38.0592V38.4891C42.4635 39.3283 41.7675 40.0243 40.9283 40.0243C40.089 40.0243 39.3931 39.3283 39.3931 38.4891V38.0592C39.3931 35.6848 41.133 34.5181 41.788 34.0677C42.5453 33.556 42.791 33.208 42.791 32.6758C42.791 31.6524 41.9517 30.8131 40.9283 30.8131C39.9048 30.8131 39.0656 31.6524 39.0656 32.6758C39.0656 33.5151 38.3696 34.211 37.5304 34.211C36.6911 34.211 35.9952 33.5151 35.9952 32.6758C35.9952 29.9534 38.2059 27.7427 40.9283 27.7427C43.6507 27.7427 45.8614 29.9534 45.8614 32.6758C45.8614 35.0093 44.142 36.1761 43.5074 36.6059Z" fill="url(#paint1_linear_2111_521)" fill-opacity="0.7"/>
<defs>
<linearGradient id="paint0_linear_2111_521" x1="67.9436" y1="8.3546" x2="34.3416" y2="56.4924" gradientUnits="userSpaceOnUse">
<stop stop-color="#7F5E39"/>
<stop offset="0.529514" stop-color="#513B1B"/>
<stop offset="1" stop-color="#37271C"/>
</linearGradient>
<linearGradient id="paint1_linear_2111_521" x1="28.0114" y1="51.7235" x2="51.6156" y2="13.6995" gradientUnits="userSpaceOnUse">
<stop stop-color="#E9D9AA"/>
<stop offset="1" stop-color="#AAD3E9" stop-opacity="0"/>
</linearGradient>
</defs>
</svg>
