<svg width="170" height="181" viewBox="0 0 170 181" fill="none" xmlns="http://www.w3.org/2000/svg">
<g filter="url(#filter0_f_76_1953)">
<circle cx="124.476" cy="59.5476" r="15.0153" fill="#A2C6D2" fill-opacity="0.5"/>
</g>
<g filter="url(#filter1_f_76_1953)">
<ellipse cx="111.641" cy="46.0153" rx="25.7207" ry="15.0153" fill="#86A8E6" fill-opacity="0.4"/>
</g>
<g filter="url(#filter2_d_76_1953)">
<rect x="38" y="44.5323" width="93.5213" height="93.5213" rx="18.5374" fill="url(#paint0_linear_76_1953)"/>
<rect x="38.7415" y="45.2738" width="92.0383" height="92.0383" rx="17.7959" stroke="url(#paint1_linear_76_1953)" stroke-width="1.48299"/>
</g>
<rect x="45.1367" y="51.6692" width="79.3401" height="79.3401" rx="11.7713" fill="url(#paint2_linear_76_1953)"/>
<path d="M62.0639 107.69C54.549 97.6801 54.549 83.7018 62.0639 73.6921C62.9165 72.5579 64.5336 72.3239 65.6704 73.1791C66.8072 74.0343 67.036 75.6489 66.1834 76.7856C60.0343 84.972 60.0343 96.4101 66.1834 104.596C67.036 105.733 66.8072 107.348 65.6704 108.203C64.5385 109.052 62.9206 108.832 62.0639 107.69Z" fill="url(#paint3_linear_76_1953)" fill-opacity="0.7"/>
<path d="M103.786 108.203C102.649 107.348 102.421 105.733 103.273 104.596C109.422 96.41 109.422 84.9719 103.273 76.7857C102.421 75.6489 102.649 74.0344 103.786 73.1792C104.923 72.3266 106.543 72.558 107.393 73.6922C114.908 83.7019 114.908 97.6802 107.393 107.69C106.537 108.83 104.92 109.053 103.786 108.203Z" fill="url(#paint4_linear_76_1953)" fill-opacity="0.7"/>
<path d="M71.2919 102.71C65.1553 95.8594 65.1553 85.5228 71.2919 78.6719C72.2425 77.613 73.8773 77.5275 74.9286 78.4706C75.9874 79.4187 76.0779 81.0486 75.1298 82.1074C70.7486 87.0016 70.7486 94.3805 75.1298 99.2746C76.0779 100.333 75.9874 101.963 74.9286 102.911C73.8734 103.858 72.241 103.772 71.2919 102.71Z" fill="url(#paint5_linear_76_1953)" fill-opacity="0.7"/>
<path d="M94.529 102.911C93.4702 101.963 93.3797 100.333 94.3278 99.2747C98.7089 94.3805 98.7089 87.0016 94.3278 82.1074C93.3797 81.0486 93.4702 79.4189 94.529 78.4706C95.5852 77.525 97.2175 77.6105 98.1657 78.6719C104.302 85.5226 104.302 95.8592 98.1657 102.71C97.217 103.772 95.5844 103.858 94.529 102.911Z" fill="url(#paint6_linear_76_1953)" fill-opacity="0.7"/>
<path d="M84.728 98.417C80.4677 98.417 77.002 94.9513 77.002 90.691C77.002 86.4307 80.4677 82.9649 84.728 82.9649C88.9883 82.9649 92.454 86.4307 92.454 90.691C92.454 94.9513 88.9885 98.417 84.728 98.417Z" fill="url(#paint7_linear_76_1953)" fill-opacity="0.7"/>
<g filter="url(#filter3_f_76_1953)">
<circle cx="117.34" cy="124.985" r="15.0153" fill="#483CC9" fill-opacity="0.6"/>
</g>
<defs>
<filter id="filter0_f_76_1953" x="83.1378" y="18.2092" width="82.6769" height="82.6769" filterUnits="userSpaceOnUse" color-interpolation-filters="sRGB">
<feFlood flood-opacity="0" result="BackgroundImageFix"/>
<feBlend mode="normal" in="SourceGraphic" in2="BackgroundImageFix" result="shape"/>
<feGaussianBlur stdDeviation="13.1616" result="effect1_foregroundBlur_76_1953"/>
</filter>
<filter id="filter1_f_76_1953" x="55.8893" y="0.969383" width="111.503" height="90.0918" filterUnits="userSpaceOnUse" color-interpolation-filters="sRGB">
<feFlood flood-opacity="0" result="BackgroundImageFix"/>
<feBlend mode="normal" in="SourceGraphic" in2="BackgroundImageFix" result="shape"/>
<feGaussianBlur stdDeviation="15.0153" result="effect1_foregroundBlur_76_1953"/>
</filter>
<filter id="filter2_d_76_1953" x="0.34137" y="11.508" width="168.839" height="168.839" filterUnits="userSpaceOnUse" color-interpolation-filters="sRGB">
<feFlood flood-opacity="0" result="BackgroundImageFix"/>
<feColorMatrix in="SourceAlpha" type="matrix" values="0 0 0 0 0 0 0 0 0 0 0 0 0 0 0 0 0 0 127 0" result="hardAlpha"/>
<feOffset dy="4.63435"/>
<feGaussianBlur stdDeviation="18.8293"/>
<feComposite in2="hardAlpha" operator="out"/>
<feColorMatrix type="matrix" values="0 0 0 0 0.036 0 0 0 0 0.0413333 0 0 0 0 0.064 0 0 0 1 0"/>
<feBlend mode="normal" in2="BackgroundImageFix" result="effect1_dropShadow_76_1953"/>
<feBlend mode="normal" in="SourceGraphic" in2="effect1_dropShadow_76_1953" result="shape"/>
</filter>
<filter id="filter3_f_76_1953" x="83.4161" y="91.0613" width="67.847" height="67.8469" filterUnits="userSpaceOnUse" color-interpolation-filters="sRGB">
<feFlood flood-opacity="0" result="BackgroundImageFix"/>
<feBlend mode="normal" in="SourceGraphic" in2="BackgroundImageFix" result="shape"/>
<feGaussianBlur stdDeviation="9.45408" result="effect1_foregroundBlur_76_1953"/>
</filter>
<linearGradient id="paint0_linear_76_1953" x1="119.287" y1="44.5323" x2="65.1573" y2="91.3393" gradientUnits="userSpaceOnUse">
<stop stop-color="#79AEE7"/>
<stop offset="0.331593" stop-color="#4960A7"/>
<stop offset="1" stop-color="#1B2030"/>
</linearGradient>
<linearGradient id="paint1_linear_76_1953" x1="120.306" y1="48.8423" x2="54.6373" y2="113.399" gradientUnits="userSpaceOnUse">
<stop stop-color="#EBF8FC"/>
<stop offset="0.295134" stop-color="#7FB8EF"/>
<stop offset="0.57639" stop-color="#5142F1"/>
<stop offset="1" stop-color="#1D1D29"/>
</linearGradient>
<linearGradient id="paint2_linear_76_1953" x1="111.593" y1="59.8257" x2="78.5968" y2="107.096" gradientUnits="userSpaceOnUse">
<stop stop-color="#3B4F75"/>
<stop offset="0.529514" stop-color="#1B253E"/>
<stop offset="1" stop-color="#1A1D2C"/>
</linearGradient>
<linearGradient id="paint3_linear_76_1953" x1="58.3226" y1="101.694" x2="76.172" y2="93.8576" gradientUnits="userSpaceOnUse">
<stop stop-color="#AAD3E9"/>
<stop offset="1" stop-color="#AAD3E9" stop-opacity="0"/>
</linearGradient>
<linearGradient id="paint4_linear_76_1953" x1="104.653" y1="101.694" x2="122.502" y2="93.8579" gradientUnits="userSpaceOnUse">
<stop stop-color="#AAD3E9"/>
<stop offset="1" stop-color="#AAD3E9" stop-opacity="0"/>
</linearGradient>
<linearGradient id="paint5_linear_76_1953" x1="68.3676" y1="98.5509" x2="82.9122" y2="90.6332" gradientUnits="userSpaceOnUse">
<stop stop-color="#AAD3E9"/>
<stop offset="1" stop-color="#AAD3E9" stop-opacity="0"/>
</linearGradient>
<linearGradient id="paint6_linear_76_1953" x1="95.3499" y1="98.5505" x2="109.895" y2="90.6331" gradientUnits="userSpaceOnUse">
<stop stop-color="#AAD3E9"/>
<stop offset="1" stop-color="#AAD3E9" stop-opacity="0"/>
</linearGradient>
<linearGradient id="paint7_linear_76_1953" x1="79.8526" y1="95.4065" x2="89.3428" y2="80.7813" gradientUnits="userSpaceOnUse">
<stop stop-color="#AAD3E9"/>
<stop offset="1" stop-color="#AAD3E9" stop-opacity="0"/>
</linearGradient>
</defs>
</svg>
