<svg width="54" height="54" viewBox="0 0 54 54" fill="none" xmlns="http://www.w3.org/2000/svg">
<g clip-path="url(#clip0_366_2292)">
<path d="M50.4004 0.899902H3.60039C2.10922 0.899902 0.900391 2.10873 0.900391 3.5999V50.3999C0.900391 51.8911 2.10922 53.0999 3.60039 53.0999H50.4004C51.8916 53.0999 53.1004 51.8911 53.1004 50.3999V3.5999C53.1004 2.10873 51.8916 0.899902 50.4004 0.899902Z" fill="#BF23EA"/>
<path d="M49.5 48.6001V9.0001C49.5 8.50304 49.0971 8.1001 48.6 8.1001H5.4C4.90295 8.1001 4.5 8.50304 4.5 9.0001V48.6001C4.5 49.0972 4.90295 49.5001 5.4 49.5001H48.6C49.0971 49.5001 49.5 49.0972 49.5 48.6001Z" fill="#E694FD"/>
<path d="M16.2 12.6001H43.2C43.677 12.6015 44.134 12.7916 44.4712 13.1289C44.8085 13.4661 44.9986 13.9231 45 14.4001V27.0001C44.9986 27.477 44.8085 27.9341 44.4712 28.2713C44.134 28.6086 43.677 28.7987 43.2 28.8001H10.8C10.323 28.7987 9.86604 28.6086 9.52878 28.2713C9.19152 27.9341 9.00142 27.477 9 27.0001V19.8001L16.2 12.6001Z" fill="white"/>
<path d="M41.3996 28.8H12.5996L22.2296 19.17C22.4063 18.9969 22.6438 18.8999 22.8911 18.8999C23.1385 18.8999 23.376 18.9969 23.5526 19.17L26.9996 22.554L28.2866 21.294L30.4466 19.17C30.6233 18.9969 30.8608 18.8999 31.1081 18.8999C31.3555 18.8999 31.593 18.9969 31.7696 19.17L41.3996 28.8Z" fill="#CB50ED"/>
<path d="M16.2 12.6001C16.2 14.5097 15.4414 16.341 14.0912 17.6913C12.7409 19.0415 10.9096 19.8001 9 19.8001V14.4001C9.00142 13.9231 9.19152 13.4661 9.52878 13.1289C9.86604 12.7916 10.323 12.6015 10.8 12.6001H16.2Z" fill="#CB50ED"/>
<path d="M43.2004 34.1999H10.8004C10.5617 34.1999 10.3328 34.1051 10.164 33.9363C9.99521 33.7675 9.90039 33.5386 9.90039 33.2999C9.90039 33.0612 9.99521 32.8323 10.164 32.6635C10.3328 32.4947 10.5617 32.3999 10.8004 32.3999H43.2004C43.4391 32.3999 43.668 32.4947 43.8368 32.6635C44.0056 32.8323 44.1004 33.0612 44.1004 33.2999C44.1004 33.5386 44.0056 33.7675 43.8368 33.9363C43.668 34.1051 43.4391 34.1999 43.2004 34.1999Z" fill="#CB50ED"/>
<path d="M43.2004 37.8H33.3004C33.0617 37.8 32.8328 37.7052 32.664 37.5364C32.4952 37.3676 32.4004 37.1387 32.4004 36.9C32.4004 36.6613 32.4952 36.4324 32.664 36.2636C32.8328 36.0948 33.0617 36 33.3004 36H43.2004C43.4391 36 43.668 36.0948 43.8368 36.2636C44.0056 36.4324 44.1004 36.6613 44.1004 36.9C44.1004 37.1387 44.0056 37.3676 43.8368 37.5364C43.668 37.7052 43.4391 37.8 43.2004 37.8Z" fill="#CB50ED"/>
<path d="M29.7004 37.8H10.8004C10.5617 37.8 10.3328 37.7052 10.164 37.5364C9.99521 37.3676 9.90039 37.1387 9.90039 36.9C9.90039 36.6613 9.99521 36.4324 10.164 36.2636C10.3328 36.0948 10.5617 36 10.8004 36H29.7004C29.9391 36 30.168 36.0948 30.3368 36.2636C30.5056 36.4324 30.6004 36.6613 30.6004 36.9C30.6004 37.1387 30.5056 37.3676 30.3368 37.5364C30.168 37.7052 29.9391 37.8 29.7004 37.8Z" fill="#CB50ED"/>
<path d="M43.2005 41.3999H20.7005C20.4618 41.3999 20.2329 41.305 20.0641 41.1363C19.8954 40.9675 19.8005 40.7385 19.8005 40.4999C19.8005 40.2612 19.8954 40.0322 20.0641 39.8635C20.2329 39.6947 20.4618 39.5999 20.7005 39.5999H43.2005C43.4392 39.5999 43.6682 39.6947 43.8369 39.8635C44.0057 40.0322 44.1005 40.2612 44.1005 40.4999C44.1005 40.7385 44.0057 40.9675 43.8369 41.1363C43.6682 41.305 43.4392 41.3999 43.2005 41.3999Z" fill="#CB50ED"/>
<path d="M17.1004 41.3999H10.8004C10.5617 41.3999 10.3328 41.305 10.164 41.1363C9.99521 40.9675 9.90039 40.7385 9.90039 40.4999C9.90039 40.2612 9.99521 40.0322 10.164 39.8635C10.3328 39.6947 10.5617 39.5999 10.8004 39.5999H17.1004C17.3391 39.5999 17.568 39.6947 17.7368 39.8635C17.9056 40.0322 18.0004 40.2612 18.0004 40.4999C18.0004 40.7385 17.9056 40.9675 17.7368 41.1363C17.568 41.305 17.3391 41.3999 17.1004 41.3999Z" fill="#CB50ED"/>
<path d="M32.4004 45H10.8004C10.5617 45 10.3328 44.9051 10.164 44.7363C9.99521 44.5676 9.90039 44.3386 9.90039 44.1C9.90039 43.8613 9.99521 43.6323 10.164 43.4636C10.3328 43.2948 10.5617 43.2 10.8004 43.2H32.4004C32.6391 43.2 32.868 43.2948 33.0368 43.4636C33.2056 43.6323 33.3004 43.8613 33.3004 44.1C33.3004 44.3386 33.2056 44.5676 33.0368 44.7363C32.868 44.9051 32.6391 45 32.4004 45Z" fill="#CB50ED"/>
<path d="M30.969 25.1909C30.8864 25.277 30.7871 25.3453 30.6773 25.3917C30.5674 25.4381 30.4493 25.4617 30.33 25.4609C30.0939 25.46 29.8676 25.3662 29.7 25.1999L27 22.5539L28.287 21.2939L30.96 23.9129C31.1298 24.0817 31.2261 24.3107 31.2277 24.5501C31.2294 24.7895 31.1364 25.0198 30.969 25.1909Z" fill="#BF23EA"/>
<path d="M40.5 16.2C39.8354 16.1994 39.1942 16.445 38.7 16.8894C38.2058 16.445 37.5646 16.1994 36.9 16.2C36.6613 16.2 36.4324 16.2948 36.2636 16.4636C36.0948 16.6323 36 16.8613 36 17.1C36 17.3386 36.0948 17.5676 36.2636 17.7363C36.4324 17.9051 36.6613 18 36.9 18C37.1387 18 37.3676 18.0948 37.5364 18.2636C37.7052 18.4323 37.8 18.6613 37.8 18.9C37.8 19.1386 37.8948 19.3676 38.0636 19.5363C38.2324 19.7051 38.4613 19.8 38.7 19.8C38.9387 19.8 39.1676 19.7051 39.3364 19.5363C39.5052 19.3676 39.6 19.1386 39.6 18.9C39.6 18.6613 39.6948 18.4323 39.8636 18.2636C40.0324 18.0948 40.2613 18 40.5 18C40.7387 18 40.9676 17.9051 41.1364 17.7363C41.3052 17.5676 41.4 17.3386 41.4 17.1C41.4 16.8613 41.3052 16.6323 41.1364 16.4636C40.9676 16.2948 40.7387 16.2 40.5 16.2Z" fill="#CB50ED"/>
</g>
<defs>
<clipPath id="clip0_366_2292">
<rect width="54" height="54" fill="white"/>
</clipPath>
</defs>
</svg>
