<svg width="52" height="52" viewBox="0 0 52 52" fill="none" xmlns="http://www.w3.org/2000/svg">
<g clip-path="url(#clip0_366_2279)">
<path d="M24.2676 24.2666H31.2009V9.53328C31.2009 8.38401 31.6575 7.28181 32.4701 6.46916C33.2828 5.6565 34.385 5.19995 35.5342 5.19995H40.7342V8.66662H35.5342C35.3044 8.66662 35.084 8.75793 34.9214 8.92046C34.7589 9.08299 34.6676 9.30343 34.6676 9.53328V24.2666H40.7342V27.7333H34.6676V42.4666C34.6676 42.6965 34.7589 42.9169 34.9214 43.0794C35.084 43.242 35.3044 43.3333 35.5342 43.3333H40.7342V46.8H35.5342C34.385 46.8 33.2828 46.3434 32.4701 45.5308C31.6575 44.7181 31.2009 43.6159 31.2009 42.4666V27.7333H24.2676V24.2666Z" fill="#FFECA7"/>
<path d="M26.0005 13.8667V37.2268C26.0005 39.6422 20.3741 41.6 13.4339 41.6C6.49359 41.6 0.867188 39.6422 0.867188 37.2268V13.8667H26.0005Z" fill="#FFE3AC"/>
<path d="M13.4339 18.2036C20.3742 18.2036 26.0005 16.2627 26.0005 13.8685C26.0005 11.4743 20.3742 9.53345 13.4339 9.53345C6.49348 9.53345 0.867188 11.4743 0.867188 13.8685C0.867188 16.2627 6.49348 18.2036 13.4339 18.2036Z" fill="#FFB84D"/>
<path d="M0.867188 21.6729C0.867188 24.0623 6.49359 26.0001 13.4339 26.0001C20.3741 26.0001 26.0005 24.0623 26.0005 21.6729V29.4729C26.0005 31.864 20.3741 33.8001 13.4339 33.8001C6.49359 33.8001 0.867188 31.864 0.867188 29.4763V21.6729Z" fill="#FFB84D"/>
<path d="M48.5333 0.866699H41.6C40.1641 0.866699 39 2.03076 39 3.4667V10.4C39 11.836 40.1641 13 41.6 13H48.5333C49.9693 13 51.1333 11.836 51.1333 10.4V3.4667C51.1333 2.03076 49.9693 0.866699 48.5333 0.866699Z" fill="#FFB84D"/>
<path d="M48.5333 19.9333H41.6C40.1641 19.9333 39 21.0974 39 22.5333V29.4667C39 30.9026 40.1641 32.0667 41.6 32.0667H48.5333C49.9693 32.0667 51.1333 30.9026 51.1333 29.4667V22.5333C51.1333 21.0974 49.9693 19.9333 48.5333 19.9333Z" fill="#FFB84D"/>
<path d="M48.5333 39H41.6C40.1641 39 39 40.1641 39 41.6V48.5333C39 49.9693 40.1641 51.1333 41.6 51.1333H48.5333C49.9693 51.1333 51.1333 49.9693 51.1333 48.5333V41.6C51.1333 40.1641 49.9693 39 48.5333 39Z" fill="#FFB84D"/>
</g>
<defs>
<clipPath id="clip0_366_2279">
<rect width="52" height="52" fill="white"/>
</clipPath>
</defs>
</svg>
