<svg width="48" height="48" viewBox="0 0 48 48" fill="none" xmlns="http://www.w3.org/2000/svg">
<path fill-rule="evenodd" clip-rule="evenodd" d="M43.546 4.45317C42.3993 3.3065 40.8527 2.6665 39.2393 2.6665H8.75935C7.14602 2.6665 5.58602 3.3065 4.45268 4.45317C3.31935 5.59984 2.66602 7.1465 2.66602 8.75984V39.2398C2.66602 40.8532 3.30602 42.4132 4.45268 43.5465C5.59935 44.6798 7.14602 45.3332 8.75935 45.3332H20.2527C18.786 43.7198 17.906 41.5865 17.906 39.2398V27.0532C17.906 22.0132 21.9994 17.9065 27.0527 17.9065H39.2393C41.586 17.9065 43.7193 18.7732 45.3327 20.2398V8.75984C45.3327 7.1465 44.6927 5.5865 43.546 4.45317ZM8.75935 10.2798C7.91935 10.2798 7.23935 9.59984 7.23935 8.75984C7.23935 7.91984 7.91935 7.23984 8.75935 7.23984C9.59935 7.23984 10.2793 7.91984 10.2793 8.75984C10.2793 9.59984 9.59935 10.2798 8.75935 10.2798ZM14.8527 10.2798C14.0127 10.2798 13.3327 9.59984 13.3327 8.75984C13.3327 7.91984 14.0127 7.23984 14.8527 7.23984C15.6927 7.23984 16.3727 7.91984 16.3727 8.75984C16.3727 9.59984 15.6927 10.2798 14.8527 10.2798Z" fill="#43D685"/>
<path fill-rule="evenodd" clip-rule="evenodd" d="M39.239 20.9465H27.0523C23.679 20.9465 20.959 23.6799 20.959 27.0399V39.2265C20.959 42.5999 23.6923 45.3199 27.0523 45.3199H39.239C42.5323 45.3465 45.3723 42.5599 45.3323 39.2265V27.0399C45.3323 23.6665 42.599 20.9465 39.239 20.9465ZM31.6657 35.9999C32.1857 36.6532 32.079 37.6132 31.4257 38.1465C30.7723 38.6665 29.8123 38.5732 29.279 37.9065L26.2257 34.0932C25.7857 33.5332 25.7857 32.7465 26.2257 32.1865L29.279 28.3732C29.799 27.7199 30.759 27.6132 31.4257 28.1332C32.079 28.6665 32.1857 29.6132 31.6657 30.2799L29.3857 33.1332L31.6657 35.9865V35.9999ZM40.2657 29.8932L37.2123 37.5065C36.9057 38.2932 35.999 38.6665 35.2257 38.3599C34.439 38.0532 34.0657 37.1599 34.3723 36.3732L37.4257 28.7599C37.7323 27.9732 38.6257 27.5999 39.4123 27.9065C40.199 28.2132 40.5723 29.1065 40.2657 29.8932Z" fill="#B7FDB5"/>
</svg>
